<?xml version="1.0" ?><svg id="Layer_1" fill="#898f9c" style="enable-background:new 0 0 48 48;" version="1.1" viewBox="0 0 48 48" xml:space="preserve" xmlns="http://www.w3.org/2000/svg" xmlns:xlink="http://www.w3.org/1999/xlink"><g><path d="M24,0.5c-2.3,0-4.1,1.8-4.1,4.1V5h-2c-1.5,0-2.8,1.1-3.1,2.5H9.1c-1.6,0-2.9,1.3-2.9,2.9v34.3c0,1.6,1.3,2.9,2.9,2.9h29.7   c1.6,0,2.9-1.3,2.9-2.9V10.4c0-1.6-1.3-2.9-2.9-2.9h-5.7C32.9,6.1,31.7,5,30.1,5h-2V4.6C28.1,2.3,26.3,0.5,24,0.5z M39.7,10.4v34.3   c0,0.5-0.4,0.9-0.9,0.9H9.1c-0.5,0-0.9-0.4-0.9-0.9V10.4c0-0.5,0.4-0.9,0.9-0.9h5.6v2.7h-3.1v30.7h24.7V12.2h-3.1V9.5h5.6   C39.3,9.5,39.7,9.9,39.7,10.4z M14.7,14.2h18.5h1.1v26.7H13.6V14.2H14.7z M30.1,7c0.6,0,1.1,0.5,1.1,1.1v4.1H16.7V8.1   c0-0.6,0.5-1.1,1.1-1.1h4V4.6c0-1.1,0.9-2.1,2.1-2.1c1.1,0,2.1,0.9,2.1,2.1V7H30.1z"/><rect height="2" width="9.5" x="22.8" y="24.3"/><rect height="2" width="3.4" x="16.8" y="29.7"/><rect height="2" width="9.5" x="22.8" y="29.7"/><rect height="2" width="3.4" x="16.8" y="35.1"/><rect height="2" width="9.5" x="22.8" y="35.1"/><polygon points="21.5,23.8 20.1,22.4 17.8,24.7 16.4,23.3 15,24.7 17.8,27.5  "/><polygon points="23,21 25,21 25,19.1 26.9,19.1 26.9,17.1 25,17.1 25,15.2 23,15.2 23,17.1 21.1,17.1 21.1,19.1 23,19.1  "/></g></svg>