<svg width="24" height="25" viewBox="0 0 24 25" fill="none" xmlns="http://www.w3.org/2000/svg">
<g id="user-02">
<g id="Icon">
<path d="M12 15.334C8.82993 15.334 6.0108 16.8646 4.216 19.24C3.82971 19.7512 3.63656 20.0068 3.64288 20.3523C3.64776 20.6192 3.81536 20.9559 4.02537 21.1207C4.29719 21.334 4.67387 21.334 5.42724 21.334H18.5728C19.3261 21.334 19.7028 21.334 19.9746 21.1207C20.1846 20.9559 20.3522 20.6192 20.3571 20.3523C20.3634 20.0068 20.1703 19.7512 19.784 19.24C17.9892 16.8646 15.1701 15.334 12 15.334Z" stroke="#9EA2AC" stroke-width="2" stroke-linecap="round" stroke-linejoin="round"/>
<path d="M12 12.334C14.4853 12.334 16.5 10.3193 16.5 7.83398C16.5 5.3487 14.4853 3.33398 12 3.33398C9.51472 3.33398 7.5 5.3487 7.5 7.83398C7.5 10.3193 9.51472 12.334 12 12.334Z" stroke="#9EA2AC" stroke-width="2" stroke-linecap="round" stroke-linejoin="round"/>
</g>
</g>
</svg>
