<svg width="16" height="16" viewBox="0 0 16 16" fill="none" xmlns="http://www.w3.org/2000/svg">
<g id="file-04">
<path id="Icon" d="M9.33317 1.51265V4.26634C9.33317 4.63971 9.33317 4.82639 9.40583 4.969C9.46975 5.09444 9.57173 5.19643 9.69718 5.26035C9.83978 5.33301 10.0265 5.33301 10.3998 5.33301H13.1535M13.3332 6.65849V11.4663C13.3332 12.5864 13.3332 13.1465 13.1152 13.5743C12.9234 13.9506 12.6175 14.2566 12.2412 14.4484C11.8133 14.6663 11.2533 14.6663 10.1332 14.6663H5.8665C4.7464 14.6663 4.18635 14.6663 3.75852 14.4484C3.3822 14.2566 3.07624 13.9506 2.88449 13.5743C2.6665 13.1465 2.6665 12.5864 2.6665 11.4663V4.53301C2.6665 3.4129 2.6665 2.85285 2.88449 2.42503C3.07624 2.0487 3.3822 1.74274 3.75852 1.55099C4.18635 1.33301 4.7464 1.33301 5.8665 1.33301H8.00769C8.49687 1.33301 8.74146 1.33301 8.97163 1.38827C9.17571 1.43726 9.3708 1.51807 9.54974 1.62773C9.75157 1.75141 9.92453 1.92436 10.2704 2.27027L12.3959 4.39575C12.7418 4.74165 12.9148 4.9146 13.0385 5.11644C13.1481 5.29538 13.2289 5.49047 13.2779 5.69454C13.3332 5.92472 13.3332 6.16931 13.3332 6.65849Z" stroke="#151923" stroke-width="1.33333" stroke-linecap="round" stroke-linejoin="round"/>
</g>
</svg>
