<svg width="32" height="32" viewBox="0 0 32 32" fill="none" xmlns="http://www.w3.org/2000/svg">
<g id="life-buoy-01">
<path id="Icon" d="M12.1815 12.1817L6.57175 6.5719M6.57175 25.4281L12.2238 19.776M19.8146 19.8183L25.4244 25.4281M25.4244 6.5719L19.7715 12.2248M29.3332 16C29.3332 23.3638 23.3636 29.3333 15.9998 29.3333C8.63604 29.3333 2.6665 23.3638 2.6665 16C2.6665 8.63616 8.63604 2.66663 15.9998 2.66663C23.3636 2.66663 29.3332 8.63616 29.3332 16ZM21.3332 16C21.3332 18.9455 18.9454 21.3333 15.9998 21.3333C13.0543 21.3333 10.6665 18.9455 10.6665 16C10.6665 13.0544 13.0543 10.6666 15.9998 10.6666C18.9454 10.6666 21.3332 13.0544 21.3332 16Z" stroke="#6A7182" stroke-width="2" stroke-linecap="round" stroke-linejoin="round"/>
</g>
</svg>
