<svg width="44" height="44" viewBox="0 0 44 44" fill="none" xmlns="http://www.w3.org/2000/svg">
<path fill-rule="evenodd" clip-rule="evenodd" d="M21.7144 13.8752C20.9034 13.9694 20.2849 14.6281 20.2274 15.4586C20.2026 15.8165 20.2104 15.8408 21.0216 17.9283C22.8672 22.6776 23.3143 23.8207 23.3895 23.9815C23.5717 24.3711 23.8279 24.7377 24.1479 25.0666C24.3936 25.3191 24.5555 25.4548 24.8295 25.6378C25.311 25.9594 25.55 26.0483 27.4236 26.6031C29.2488 27.1435 30.2459 27.5027 31.1051 27.9291C32.2183 28.4816 32.995 29.1101 33.4862 29.8558C33.8387 30.3908 34.1509 31.3502 34.2867 32.3161C34.3398 32.6936 34.3401 33.5281 34.2873 33.8694C34.1727 34.6102 33.9438 35.2309 33.5937 35.7503C33.4075 36.0266 33.4723 35.9803 33.743 35.6437C34.5092 34.691 35.2897 33.0628 35.688 31.5863C36.17 29.7994 36.2356 27.8805 35.8767 26.0644C35.1778 22.5276 32.9451 19.4754 29.8006 17.7581C29.603 17.6501 28.8504 17.2557 27.8302 16.7252C27.6754 16.6447 27.4643 16.5345 27.3611 16.4803C27.2579 16.4261 27.0467 16.3159 26.8919 16.2354C26.7371 16.1549 26.2914 15.9227 25.9015 15.7194C25.5116 15.5161 25.0754 15.2886 24.932 15.2139C24.4951 14.9861 24.2019 14.833 23.9833 14.7186C22.9724 14.1893 22.5444 13.9754 22.4225 13.9383C22.2945 13.8993 21.9694 13.8494 21.8879 13.8561C21.8707 13.8575 21.7926 13.8661 21.7144 13.8752Z" fill="url(#paint0_radial_373_30794)"/>
<path d="M23.9184 31.6051C23.8623 31.6382 23.7837 31.6863 23.7436 31.7118C23.7034 31.7373 23.6143 31.7927 23.5455 31.8349C23.2929 31.9899 22.6213 32.4037 22.0442 32.76C21.6649 32.9941 21.6087 33.029 21.1268 33.328C20.9548 33.4348 20.7718 33.5473 20.7202 33.578C20.6686 33.6088 20.4482 33.7446 20.2303 33.8797C20.0124 34.0149 19.6324 34.2495 19.3858 34.401C19.1393 34.5525 18.6983 34.8246 18.4059 35.0055C18.1134 35.1864 17.7287 35.4237 17.551 35.5327C17.3733 35.6416 17.2091 35.7469 17.1861 35.7666C17.1521 35.7958 15.5712 36.7751 14.7779 37.2584C14.1754 37.6254 13.4785 37.8709 12.765 37.9673C12.4329 38.0121 11.8043 38.0123 11.4731 37.9675C10.5751 37.8463 9.74772 37.5113 9.03916 36.9823C8.76123 36.7748 8.23797 36.2519 8.03793 35.9818C7.56653 35.3454 7.26157 34.6628 7.10363 33.8904C7.06729 33.7126 7.03291 33.5625 7.02726 33.5567C7.0125 33.5418 7.03916 33.8103 7.08727 34.1614C7.13728 34.5265 7.24387 35.0546 7.35867 35.5062C8.24706 39.0015 10.775 41.8444 14.1972 43.197C15.1827 43.5863 16.1771 43.8316 17.2591 43.952C17.6657 43.9975 18.8165 44.0156 19.2408 43.9833C21.1867 43.8359 22.8811 43.2632 24.6193 42.1647C24.7741 42.0668 25.0649 41.8834 25.2656 41.7571C25.4663 41.6307 25.7196 41.4701 25.8286 41.4002C25.9375 41.3303 26.0689 41.2476 26.1205 41.2166C26.1721 41.1855 26.2753 41.1207 26.3498 41.0725C26.4244 41.0242 26.7434 40.8225 27.0587 40.6241L28.3198 39.8276L28.7528 39.5541L28.7684 39.5442L28.8161 39.5141L28.8387 39.4998L29.1575 39.2984L30.2593 38.6025C31.663 37.7204 32.0816 37.4107 32.7338 36.7719C33.0057 36.5056 33.4157 36.051 33.436 35.9933C33.4401 35.9816 33.513 35.8692 33.5979 35.7435C33.9431 35.2328 34.1732 34.6072 34.2873 33.8695C34.3401 33.5282 34.3398 32.6937 34.2867 32.3162C34.184 31.5862 33.9508 30.7583 33.6993 30.2311C33.287 29.3667 32.4085 28.5812 31.1466 27.9486C30.7981 27.774 30.4383 27.6141 30.3981 27.6162C30.3791 27.6172 29.2048 28.335 27.7885 29.2114C26.3723 30.0878 25.1431 30.8485 25.0571 30.9018C24.9711 30.9552 24.8233 31.0455 24.7287 31.1024L23.9184 31.6051Z" fill="url(#paint1_radial_373_30794)"/>
<path d="M7.00607 27.401L7.01213 33.505L7.09114 33.8594C7.33817 34.9676 7.76618 35.7666 8.51027 36.5087C8.86026 36.8578 9.12789 37.0683 9.50716 37.2927C10.3097 37.7676 11.1735 38.0019 12.1196 38.0015C13.1105 38.001 13.9676 37.7538 14.8509 37.2139C15 37.1229 15.5841 36.7632 16.1489 36.4148L17.1757 35.7813V28.5392V21.2972L17.1754 14.672C17.1752 10.4452 17.1675 7.93504 17.1541 7.73811C17.0699 6.50057 16.5523 5.36289 15.6821 4.50235C15.415 4.23825 15.1867 4.06186 14.5069 3.59402C14.1686 3.3612 13.5493 2.93471 13.1308 2.64627C12.7122 2.35781 12.0226 1.88261 11.5983 1.59025C11.174 1.29791 10.5688 0.880799 10.2535 0.663373C9.59648 0.2104 9.54506 0.178894 9.34647 0.107836C9.08815 0.0154278 8.81441 -0.0185158 8.55416 0.00959031C7.79562 0.091511 7.1884 0.639186 7.03057 1.38377C7.006 1.49961 7.00148 3.0413 7.00117 11.4089L7.00081 21.2972H7L7.00607 27.401Z" fill="url(#paint2_linear_373_30794)"/>
<defs>
<radialGradient id="paint0_radial_373_30794" cx="0" cy="0" r="1" gradientUnits="userSpaceOnUse" gradientTransform="translate(35.107 31.0338) rotate(-130.909) scale(22.7332 16.3576)">
<stop stop-color="#00CACC"/>
<stop offset="1" stop-color="#048FCE"/>
</radialGradient>
<radialGradient id="paint1_radial_373_30794" cx="0" cy="0" r="1" gradientUnits="userSpaceOnUse" gradientTransform="translate(10.8164 39.3219) rotate(-23.1954) scale(24.5893 40.9789)">
<stop stop-color="#00BBEC"/>
<stop offset="1" stop-color="#2756A9"/>
</radialGradient>
<linearGradient id="paint2_linear_373_30794" x1="12.0879" y1="-1.33599e-08" x2="12.0879" y2="38.0015" gradientUnits="userSpaceOnUse">
<stop stop-color="#00BBEC"/>
<stop offset="1" stop-color="#2756A9"/>
</linearGradient>
</defs>
</svg>
