<svg width="172" height="21" viewBox="0 0 172 21" fill="none" xmlns="http://www.w3.org/2000/svg">
<g clip-path="url(#clip0_52_27261)">
<rect width="171.698" height="20.35" fill="#FAFAFA"/>
<path d="M116.05 8.31735C115.882 8.69699 115.712 9.07662 115.546 9.45698C114.557 11.721 113.561 13.9821 112.586 16.2519C112.47 16.5234 112.332 16.6054 112.051 16.5931C111.556 16.5699 111.059 16.572 110.564 16.5931C110.306 16.604 110.188 16.5162 110.087 16.2773C109.014 13.7346 107.929 11.1976 106.846 8.65924C106.799 8.54964 106.75 8.44148 106.638 8.34058V16.5662H103.601V2.17787C103.919 2.17787 104.24 2.17787 104.562 2.17787C105.348 2.17787 106.134 2.19021 106.92 2.17134C107.19 2.16481 107.319 2.24974 107.426 2.50016C108.742 5.56845 110.069 8.63093 111.395 11.6949C111.441 11.8023 111.493 11.9075 111.565 12.0622C111.646 11.9017 111.706 11.7907 111.758 11.676C113.145 8.61279 114.535 5.55103 115.915 2.48419C116.018 2.25482 116.137 2.16553 116.397 2.17061C117.302 2.18804 118.208 2.17715 119.143 2.17715V16.5641H116.12V8.33187C116.097 8.32679 116.074 8.32244 116.05 8.31735Z" fill="#0C111D"/>
<path d="M39.6259 10.9181H36.5076V8.46242H42.6935V8.82899C42.6935 10.4339 42.7008 12.0381 42.6841 13.643C42.6819 13.8376 42.597 14.072 42.4692 14.2179C40.8745 16.0384 38.8159 16.8187 36.4372 16.7541C32.4579 16.646 29.4353 13.5813 29.3286 9.60568C29.2321 6.01186 31.335 3.06116 34.674 2.2293C37.0665 1.63336 39.3051 2.01735 41.2708 3.58234C41.964 4.13474 42.4598 4.83811 42.7479 5.72949C41.8529 6.15776 40.9652 6.5824 40.0629 7.0143C39.9199 6.78274 39.8045 6.54393 39.6426 6.34213C38.7861 5.27146 37.6261 4.86715 36.3029 4.96369C34.0795 5.12556 32.5276 6.81105 32.4564 9.04966C32.4056 10.6488 32.8731 12.0149 34.1623 13.0427C35.6626 14.239 38.2214 13.9479 39.4423 13.0267C39.5272 12.9629 39.6151 12.8395 39.618 12.7422C39.6339 12.1535 39.6259 11.5648 39.6259 10.9188V10.9181Z" fill="#0C111D"/>
<path d="M97.232 16.5689H94.3365V16.1646C94.3365 14.6446 94.3379 13.1246 94.335 11.6039C94.335 11.3876 94.3241 11.1699 94.298 10.955C94.1833 10.0034 93.6672 9.37983 92.8673 9.21216C91.9686 9.02415 90.8813 9.45678 90.4574 10.1877C90.3906 10.3032 90.3782 10.4621 90.3775 10.6015C90.3724 12.4474 90.3739 14.2933 90.3739 16.1392C90.3739 16.2706 90.3739 16.4027 90.3739 16.5602H87.4878V2.19727H90.3644V7.58038C90.5815 7.37641 90.7419 7.21889 90.9089 7.06936C92.3991 5.73592 95.8448 5.92538 96.872 8.74251C97.0912 9.34354 97.2124 10.0092 97.2284 10.6487C97.2748 12.5541 97.2458 14.461 97.2458 16.3671C97.2458 16.4252 97.2378 16.4833 97.2313 16.5697L97.232 16.5689Z" fill="#0C111D"/>
<path d="M56.7242 6.28468C59.7192 6.27887 61.989 8.5291 61.997 11.511C62.0043 14.5365 59.7744 16.7809 56.7496 16.7918C53.7561 16.8027 51.487 14.5532 51.4798 11.5676C51.4718 8.54289 53.7082 6.29049 56.725 6.2854L56.7242 6.28468ZM56.6959 14.0029C58.0577 14.0276 59.1175 12.9911 59.1508 11.601C59.185 10.1834 58.1658 9.07859 56.8034 9.05536C55.393 9.0314 54.3571 10.0636 54.3354 11.5139C54.3143 12.9083 55.3291 13.9783 56.6959 14.0029Z" fill="#0C111D"/>
<path d="M154.98 6.28467C157.975 6.28467 160.238 8.53779 160.241 11.5219C160.245 14.5452 158.008 16.7867 154.983 16.7918C151.977 16.7968 149.717 14.5321 149.724 11.5197C149.73 8.52545 151.98 6.28394 154.98 6.28467ZM154.984 14.0037C156.343 14.0044 157.388 12.9461 157.397 11.5582C157.407 10.1391 156.378 9.06188 155.005 9.05535C153.607 9.04809 152.568 10.1202 152.58 11.5567C152.59 12.9613 153.614 14.0029 154.984 14.0037Z" fill="#0C111D"/>
<path d="M164.82 16.5695H161.931V6.51032H164.817V7.5447C165.165 7.26451 165.454 6.96835 165.798 6.7651C167.863 5.542 170.622 6.58654 171.398 8.8912C171.554 9.35431 171.673 9.85444 171.68 10.3393C171.71 12.4023 171.693 14.4659 171.693 16.5579H168.797V16.1863C168.797 14.6416 168.799 13.0969 168.795 11.5523C168.794 11.3004 168.781 11.0449 168.739 10.7966C168.587 9.90816 168.053 9.33399 167.279 9.20333C166.35 9.04654 165.268 9.50167 164.888 10.2261C164.825 10.3451 164.821 10.5034 164.821 10.6435C164.817 12.4778 164.818 14.3121 164.818 16.1464V16.5695H164.82Z" fill="#0C111D"/>
<path d="M80.3704 9.25982H78.5288V6.49205H80.3675V3.84912H83.2862V6.4768H85.7636V9.23296H83.3356C83.3196 9.36507 83.2986 9.45581 83.2986 9.54654C83.2964 10.512 83.2906 11.4774 83.2986 12.4428C83.308 13.4844 84.0615 14.1384 85.1038 14.0209C85.3056 13.9984 85.506 13.957 85.7506 13.9171C85.784 14.4121 85.8188 14.8992 85.8493 15.3862C85.8624 15.5909 85.8645 15.7964 85.8747 16.0011C85.9008 16.5266 85.9045 16.5411 85.3956 16.6427C84.4759 16.8264 83.5621 16.7966 82.6888 16.4344C81.3082 15.8624 80.5526 14.7903 80.4335 13.3284C80.3457 12.249 80.3863 11.1587 80.3718 10.0728C80.3682 9.8202 80.3718 9.56759 80.3718 9.25982H80.3704Z" fill="#0C111D"/>
<path d="M51.2373 6.49147C51.1364 6.42251 51.0406 6.39856 51.0406 6.39856C51.034 6.39638 51.0275 6.39348 51.021 6.3913C49.8813 6.03707 48.5269 6.44937 47.7719 7.36978C47.7233 7.42858 47.6689 7.48302 47.5636 7.59771V6.50454H44.6812V16.5594H47.5651V16.1348C47.5651 14.3614 47.5636 12.5889 47.568 10.8155C47.568 10.6631 47.568 10.4838 47.6427 10.3633C48.1835 9.48862 48.9268 8.92607 50.0091 8.97543C50.3532 8.9914 50.6943 9.07632 51.0732 9.13512C51.1291 8.29165 51.1887 7.45326 51.23 6.61342L51.238 6.4922L51.2373 6.49147Z" fill="#0C111D"/>
<path d="M121.376 6.50537H124.24V16.5588H121.376V6.50537Z" fill="#0C111D"/>
<path d="M145.239 16.5673V6.50879H148.108V16.5666H145.239V16.5673Z" fill="#0C111D"/>
<path d="M121.039 3.35593C121.033 2.37745 121.819 1.59205 122.804 1.59277C123.772 1.59277 124.563 2.36438 124.575 3.31964C124.588 4.28941 123.798 5.09441 122.822 5.1053C121.844 5.11691 121.045 4.33297 121.039 3.35593H121.039Z" fill="#0C111D"/>
<path d="M144.911 3.30856C144.924 2.3366 145.728 1.57516 146.723 1.59258C147.679 1.60927 148.466 2.41935 148.447 3.3659C148.427 4.34293 147.62 5.12325 146.647 5.10438C145.664 5.08551 144.898 4.29357 144.911 3.30783L144.911 3.30856Z" fill="#0C111D"/>
<path d="M142.358 11.2997C141.688 10.9353 140.943 10.7008 140.223 10.433C139.67 10.2276 139.095 10.0795 138.545 9.87043C138.28 9.77026 138.073 9.56847 138.097 9.23601C138.113 9.00373 138.227 8.82662 138.392 8.72137C138.392 8.72137 138.396 8.71846 138.404 8.71411C138.406 8.71266 138.408 8.7112 138.41 8.70975C138.539 8.63208 139.375 8.18857 140.869 8.72137C140.991 8.76492 141.098 8.80702 141.19 8.84767C141.629 9.01825 142.055 9.2469 142.474 9.52637L143.328 7.47503C143.238 7.38647 143.144 7.31098 143.06 7.24928C143.032 7.22751 143.001 7.20573 142.966 7.18468C142.843 7.10411 142.756 7.06056 142.756 7.06056H142.755C141.46 6.33105 140.057 6.18152 138.598 6.34411C137.761 6.43703 137.019 6.77819 136.392 7.34873C135.53 8.13268 135.243 9.11334 135.45 10.2363C135.643 11.283 136.357 11.8956 137.313 12.2194C138.099 12.4865 138.917 12.6556 139.715 12.8901C140.024 12.9808 140.339 13.0926 140.609 13.2625C140.99 13.5027 140.999 13.9898 140.616 14.2235C140.339 14.3927 139.996 14.5197 139.674 14.5407C138.423 14.6235 137.251 14.3491 136.195 13.6479C136.129 13.6044 136.053 13.5746 135.966 13.5303C135.678 14.2039 135.399 14.855 135.118 15.5112C135.196 15.5686 135.251 15.6158 135.311 15.6528C135.465 15.7479 135.618 15.8466 135.779 15.9293C137.184 16.653 138.685 16.8723 140.244 16.7525C141.254 16.6748 142.135 16.3024 142.861 15.5758C143.973 14.4602 144.01 12.1983 142.359 11.2997H142.358Z" fill="#0C111D"/>
<path d="M132.99 11.2997C132.32 10.9353 131.575 10.7008 130.855 10.433C130.303 10.2276 129.728 10.0795 129.177 9.87043C128.912 9.77026 128.706 9.56847 128.729 9.23601C128.746 9.00373 128.859 8.82662 129.024 8.72137C129.024 8.72137 129.028 8.71846 129.036 8.71411C129.038 8.71266 129.04 8.7112 129.043 8.70975C129.172 8.63208 130.007 8.18857 131.501 8.72137C131.624 8.76492 131.731 8.80702 131.823 8.84767C132.261 9.01825 132.687 9.2469 133.107 9.52637L133.96 7.47503C133.87 7.38647 133.777 7.31098 133.692 7.24928C133.664 7.22751 133.633 7.20573 133.598 7.18468C133.476 7.10411 133.388 7.06056 133.388 7.06056H133.387C132.092 6.33105 130.689 6.18152 129.23 6.34411C128.393 6.43703 127.651 6.77819 127.025 7.34873C126.162 8.13268 125.876 9.11334 126.082 10.2363C126.276 11.283 126.99 11.8956 127.945 12.2194C128.731 12.4865 129.549 12.6556 130.347 12.8901C130.656 12.9808 130.971 13.0926 131.241 13.2625C131.622 13.5027 131.632 13.9898 131.249 14.2235C130.971 14.3927 130.629 14.5197 130.306 14.5407C129.056 14.6235 127.883 14.3491 126.827 13.6479C126.761 13.6044 126.686 13.5746 126.599 13.5303C126.31 14.2039 126.032 14.855 125.751 15.5112C125.828 15.5686 125.883 15.6158 125.944 15.6528C126.098 15.7479 126.25 15.8466 126.411 15.9293C127.816 16.653 129.317 16.8723 130.876 16.7525C131.886 16.6748 132.768 16.3024 133.493 15.5758C134.606 14.4602 134.643 12.1983 132.991 11.2997H132.99Z" fill="#0C111D"/>
<path d="M0.00244141 18.0127V20.35H2.43413L17.0265 5.72863V20.35L20.3503 17.032V0H3.311L0.00244141 3.40147H14.5868L0.00244141 18.0127Z" fill="#0C111D"/>
<path d="M0.00244141 14.7165V9.96776L4.3236 5.68652H9.03237L0.00244141 14.7165Z" fill="#0C111D"/>
<path d="M5.64697 20.35L14.7045 11.2612V16.0266L10.3957 20.35H5.64697Z" fill="#0C111D"/>
<path d="M17.0266 19.8906L17.2611 20.1164L17.0266 20.3501V19.8906Z" fill="#209CF0"/>
<path d="M0.245611 3.15088L0.525074 3.40131H0.00244141L0.245611 3.15088Z" fill="#209CF0"/>
<path d="M78.1537 6.48446C77.6492 7.88686 77.173 9.21304 76.6954 10.5385C76.0043 12.4541 75.3075 14.3675 74.6273 16.2867C74.5446 16.5197 74.443 16.6025 74.194 16.593C73.6387 16.5727 73.0812 16.5742 72.5259 16.593C72.2915 16.6003 72.1942 16.5183 72.1151 16.3012C71.5322 14.6927 70.9341 13.0892 70.3396 11.485C70.2996 11.3776 70.2496 11.2731 70.1741 11.096C69.7763 12.1601 69.4061 13.148 69.0373 14.1367C68.7637 14.8705 68.4864 15.6029 68.2244 16.3412C68.1569 16.5313 68.0618 16.5974 67.8585 16.5923C67.2785 16.5778 66.6971 16.5974 66.1179 16.5778C66.0104 16.5742 65.8457 16.4718 65.8108 16.3775C64.6284 13.1408 63.459 9.899 62.2881 6.65795C62.2765 6.62528 62.2772 6.58754 62.2656 6.50479C62.3847 6.4968 62.4986 6.48374 62.6126 6.48301C63.4103 6.48083 64.2088 6.4939 65.0065 6.47575C65.2737 6.46995 65.3825 6.55995 65.4573 6.81111C65.9357 8.41603 66.43 10.0166 66.92 11.6179C66.9497 11.7159 66.9867 11.8117 67.0441 11.9779C67.4557 10.8368 67.844 9.7618 68.2316 8.68678C68.4603 8.05163 68.6984 7.42012 68.911 6.7799C68.9894 6.54399 69.1078 6.46704 69.3546 6.47575C69.9099 6.49535 70.4673 6.49245 71.0226 6.4772C71.2549 6.47067 71.3565 6.55124 71.4356 6.76973C72.0033 8.34562 72.5862 9.91569 73.1647 11.4872C73.2177 11.6317 73.2743 11.7747 73.3563 11.9903C73.6931 10.8797 74.0082 9.8431 74.321 8.80655C74.5264 8.1264 74.7246 7.44335 74.9402 6.7661C74.9743 6.66013 75.0832 6.49825 75.1601 6.4968C76.135 6.47866 77.1106 6.48446 78.1537 6.48446Z" fill="#0C111D"/>
<path d="M62.2647 6.47412H65.3932L67.0432 11.977L69.0117 6.47412H71.3571L73.3554 11.9893L75.0227 6.47412H78.1535L74.548 16.5936H72.2455L70.1732 11.0951L68.177 16.5936H65.8941L62.2168 6.47412H62.2647Z" fill="#0C111D"/>
</g>
<defs>
<clipPath id="clip0_52_27261">
<rect width="171.698" height="20.35" fill="white"/>
</clipPath>
</defs>
</svg>
