<?xml version="1.0" ?><svg viewBox="0 0 64 64" xmlns="http://www.w3.org/2000/svg" fill="#898f9c"><path d="M29,26a1,1,0,0,0-.553-.895l-6-3-.894,1.79L25.764,26l-4.211,2.105.894,1.79,6-3A1,1,0,0,0,29,26Z"/><path d="M35.553,26.9l6,3,.894-1.79L38.236,26,42.447,23.9l-.894-1.79-6,3a1,1,0,0,0,0,1.79Z"/><path d="M55,50H41V45.829A19.034,19.034,0,0,0,50.9,31H52a5,5,0,0,0,0-10H51a16.873,16.873,0,0,0-2.629-9.06l2.438-3.352A1,1,0,0,0,50,7H48.477l1.452-3.628A1,1,0,0,0,49,2H38a1,1,0,0,0-.986,1.165l.191,1.149A16.929,16.929,0,0,0,34,4H18a2.012,2.012,0,0,1-1.865-1.295,1.006,1.006,0,0,0-1.068-.636,7,7,0,0,0-6,7.941,7.015,7.015,0,0,0,4.776,5.6A18.8,18.8,0,0,0,13.005,21H12a5,5,0,0,0,0,10h1.1A19.034,19.034,0,0,0,23,45.829V50H9a7.008,7.008,0,0,0-7,7v4a1,1,0,0,0,1,1H61a1,1,0,0,0,1-1V57A7.008,7.008,0,0,0,55,50ZM52,23a3,3,0,0,1,0,6H51V23Zm-3-2.1a4.962,4.962,0,0,1-3.955-4.386L47.1,13.7A14.893,14.893,0,0,1,49,20.9ZM47.523,4,46.071,7.628A1,1,0,0,0,47,9h1.036L43,15.925V9a1,1,0,0,0-1-1H39.847l-.666-4ZM11.05,9.731a5.006,5.006,0,0,1,3.611-5.543A4.02,4.02,0,0,0,18,6H34a14.924,14.924,0,0,1,3.559.438l.455,2.727A1,1,0,0,0,39,10h2v4H16.21A5.131,5.131,0,0,1,11.05,9.731ZM9,26a3,3,0,0,1,3-3h1v6H12A3,3,0,0,1,9,26Zm6,3.1v-8a16.88,16.88,0,0,1,.821-5.119c.13.006.258.017.389.017H41v3a1,1,0,0,0,1.809.588l.707-.972A6.963,6.963,0,0,0,49,22.921V29.1a17,17,0,0,1-34,0Zm17,19a18.888,18.888,0,0,0,7-1.353v3.7l-7,4.376-7-4.376v-3.7A18.888,18.888,0,0,0,32,48.1ZM60,60H4V57a5.006,5.006,0,0,1,5-5H23.713l7.757,4.848a1,1,0,0,0,1.06,0L40.287,52H55a5.006,5.006,0,0,1,5,5Z"/><path d="M38,40a6,6,0,0,0-12,0,1,1,0,0,0,1,1H37A1,1,0,0,0,38,40Zm-9.873-1a4,4,0,0,1,7.746,0Z"/></svg>