<svg width="20" height="20" viewBox="0 0 20 20" fill="none" xmlns="http://www.w3.org/2000/svg">
<g clip-path="url(#clip0_979_20)">
<path d="M2.5 18.125H3.75V20H2.5C1.12109 20 0 18.8789 0 17.5V2.5C0 1.12109 1.12109 0 2.5 0H8.96484C9.62891 0 10.2656 0.261719 10.7344 0.730469L14.2695 4.26562C14.7383 4.73437 15 5.37109 15 6.03516V11.25H13.125V6.25H10C9.30859 6.25 8.75 5.69141 8.75 5V1.875H2.5C2.15625 1.875 1.875 2.15625 1.875 2.5V17.5C1.875 17.8438 2.15625 18.125 2.5 18.125ZM6.875 13.75H8.125C9.33203 13.75 10.3125 14.7305 10.3125 15.9375C10.3125 17.1445 9.33203 18.125 8.125 18.125H7.5V19.375C7.5 19.7188 7.21875 20 6.875 20C6.53125 20 6.25 19.7188 6.25 19.375V14.375C6.25 14.0312 6.53125 13.75 6.875 13.75ZM8.125 16.875C8.64453 16.875 9.0625 16.457 9.0625 15.9375C9.0625 15.418 8.64453 15 8.125 15H7.5V16.875H8.125ZM11.875 13.75H13.125C14.1602 13.75 15 14.5898 15 15.625V18.125C15 19.1602 14.1602 20 13.125 20H11.875C11.5312 20 11.25 19.7188 11.25 19.375V14.375C11.25 14.0312 11.5312 13.75 11.875 13.75ZM13.125 18.75C13.4688 18.75 13.75 18.4688 13.75 18.125V15.625C13.75 15.2812 13.4688 15 13.125 15H12.5V18.75H13.125ZM16.25 14.375C16.25 14.0312 16.5312 13.75 16.875 13.75H18.75C19.0938 13.75 19.375 14.0312 19.375 14.375C19.375 14.7188 19.0938 15 18.75 15H17.5V16.25H18.75C19.0938 16.25 19.375 16.5312 19.375 16.875C19.375 17.2188 19.0938 17.5 18.75 17.5H17.5V19.375C17.5 19.7188 17.2188 20 16.875 20C16.5312 20 16.25 19.7188 16.25 19.375V14.375Z" fill="#6A7182"/>
</g>
<defs>
<clipPath id="clip0_979_20">
<rect width="20" height="20" fill="white"/>
</clipPath>
</defs>
</svg>
