<svg width="44" height="44" viewBox="0 0 44 44" fill="none" xmlns="http://www.w3.org/2000/svg">
<g clip-path="url(#clip0_373_30786)">
<path d="M43.571 22.5067C43.571 21.0112 43.4498 19.5076 43.1911 18.0364H22.44V26.5082H34.3232C33.8301 29.2405 32.2456 31.6575 29.9256 33.1935V38.6904H37.0151C41.1782 34.8587 43.571 29.2001 43.571 22.5067Z" fill="#4285F4"/>
<path d="M22.44 44.0016C28.3735 44.0016 33.3773 42.0534 37.0231 38.6906L29.9336 33.1936C27.9612 34.5355 25.4148 35.2954 22.448 35.2954C16.7086 35.2954 11.8421 31.4232 10.096 26.2173H2.78021V31.884C6.51492 39.313 14.1218 44.0016 22.44 44.0016Z" fill="#34A853"/>
<path d="M10.088 26.2172C9.16644 23.4849 9.16644 20.5262 10.088 17.7939V12.1272H2.78026C-0.340082 18.3436 -0.340082 25.6675 2.78026 31.8839L10.088 26.2172Z" fill="#FBBC04"/>
<path d="M22.44 8.70771C25.5765 8.65921 28.6079 9.83944 30.8794 12.0059L37.1605 5.7248C33.1833 1.99009 27.9046 -0.0631877 22.44 0.00148255C14.1218 0.00148255 6.51492 4.69007 2.78021 12.1271L10.0879 17.7939C11.826 12.5798 16.7005 8.70771 22.44 8.70771Z" fill="#EA4335"/>
</g>
<defs>
<clipPath id="clip0_373_30786">
<rect width="44" height="44" fill="white"/>
</clipPath>
</defs>
</svg>
