<svg width="24" height="25" viewBox="0 0 24 25" fill="none" xmlns="http://www.w3.org/2000/svg">
<g id="bell-02">
<path id="Icon" d="M14 21.3333H9.99999M18 8.33325C18 6.74195 17.3678 5.21583 16.2426 4.09061C15.1174 2.96539 13.5913 2.33325 12 2.33325C10.4087 2.33325 8.88257 2.96539 7.75735 4.09061C6.63213 5.21583 5.99999 6.74195 5.99999 8.33325C5.99999 11.4234 5.22046 13.5392 4.34965 14.9387C3.61512 16.1191 3.24785 16.7094 3.26131 16.874C3.27622 17.0563 3.31485 17.1258 3.46176 17.2348C3.59445 17.3333 4.19258 17.3333 5.38884 17.3333H18.6111C19.8074 17.3333 20.4055 17.3333 20.5382 17.2348C20.6851 17.1258 20.7238 17.0563 20.7387 16.874C20.7521 16.7094 20.3849 16.1191 19.6503 14.9387C18.7795 13.5392 18 11.4234 18 8.33325Z" stroke="#9EA2AC" stroke-width="2" stroke-linecap="round" stroke-linejoin="round"/>
</g>
</svg>
