<svg width="17" height="17" viewBox="0 0 17 17" fill="none" xmlns="http://www.w3.org/2000/svg">
<path d="M6.34141 6.17785C6.49815 5.7323 6.80751 5.35659 7.21472 5.11727C7.62192 4.87796 8.10068 4.79048 8.5662 4.87033C9.03172 4.95018 9.45396 5.1922 9.75813 5.55354C10.0623 5.91487 10.2288 6.3722 10.2281 6.84452C10.2281 8.17785 8.22808 8.84452 8.22808 8.84452M8.28141 11.5112H8.28808M14.9481 8.17785C14.9481 11.8598 11.9633 14.8445 8.28141 14.8445C4.59951 14.8445 1.61475 11.8598 1.61475 8.17785C1.61475 4.49595 4.59951 1.51118 8.28141 1.51118C11.9633 1.51118 14.9481 4.49595 14.9481 8.17785Z" stroke="#9A9DA2" stroke-width="1.02083" stroke-linecap="round" stroke-linejoin="round"/>
</svg>
