<svg width="20" height="20" viewBox="0 0 20 20" fill="none" xmlns="http://www.w3.org/2000/svg">
<g id="life-buoy-01" clip-path="url(#clip0_821_11216)">
<path id="Icon" d="M7.61339 7.61353L4.10728 4.10742M4.10728 15.8925L7.63981 12.36M12.3841 12.3864L15.8902 15.8925M15.8902 4.10742L12.3571 7.64047M18.3332 9.99996C18.3332 14.6023 14.6022 18.3333 9.99984 18.3333C5.39746 18.3333 1.6665 14.6023 1.6665 9.99996C1.6665 5.39759 5.39746 1.66663 9.99984 1.66663C14.6022 1.66663 18.3332 5.39759 18.3332 9.99996ZM13.3332 9.99996C13.3332 11.8409 11.8408 13.3333 9.99984 13.3333C8.15889 13.3333 6.6665 11.8409 6.6665 9.99996C6.6665 8.15901 8.15889 6.66663 9.99984 6.66663C11.8408 6.66663 13.3332 8.15901 13.3332 9.99996Z" stroke="#151923" stroke-width="1.66667" stroke-linecap="round" stroke-linejoin="round"/>
</g>
<defs>
<clipPath id="clip0_821_11216">
<rect width="20" height="20" fill="white"/>
</clipPath>
</defs>
</svg>
