<svg width="862" height="240" viewBox="0 0 862 240" fill="none" xmlns="http://www.w3.org/2000/svg">
<line x1="1.5" y1="10.5" x2="860.5" y2="10.5" stroke="#EFF0F1" stroke-linecap="round"/>
<line x1="1.5" y1="53" x2="860.5" y2="53" stroke="#EFF0F1" stroke-linecap="round"/>
<line x1="1.5" y1="93" x2="860.5" y2="93" stroke="#EFF0F1" stroke-linecap="round"/>
<line x1="1.5" y1="133" x2="860.5" y2="133" stroke="#EFF0F1" stroke-linecap="round"/>
<line x1="1.5" y1="173" x2="860.5" y2="173" stroke="#EFF0F1" stroke-linecap="round"/>
<line x1="1.5" y1="213" x2="860.5" y2="213" stroke="#EFF0F1" stroke-linecap="round"/>
<path d="M29.7493 226.273H30.8061V232.511C30.8061 233.068 30.7038 233.541 30.4993 233.93C30.2947 234.32 30.0064 234.615 29.6342 234.817C29.2621 235.018 28.8232 235.119 28.3175 235.119C27.8402 235.119 27.4155 235.033 27.0433 234.859C26.6712 234.683 26.3786 234.433 26.1655 234.109C25.9524 233.786 25.8459 233.401 25.8459 232.955H26.8857C26.8857 233.202 26.9467 233.418 27.0689 233.602C27.1939 233.784 27.3643 233.926 27.5803 234.028C27.7962 234.131 28.0419 234.182 28.3175 234.182C28.6214 234.182 28.88 234.118 29.093 233.99C29.3061 233.862 29.468 233.675 29.5788 233.428C29.6925 233.178 29.7493 232.872 29.7493 232.511V226.273ZM34.7138 235.153C34.299 235.153 33.9226 235.075 33.5845 234.919C33.2464 234.76 32.978 234.531 32.7791 234.233C32.5803 233.932 32.4808 233.568 32.4808 233.142C32.4808 232.767 32.5547 232.463 32.7024 232.23C32.8501 231.994 33.0476 231.81 33.2947 231.676C33.5419 231.543 33.8146 231.443 34.1129 231.378C34.4141 231.31 34.7166 231.256 35.0206 231.216C35.4183 231.165 35.7408 231.126 35.9879 231.101C36.2379 231.072 36.4197 231.026 36.5334 230.96C36.6499 230.895 36.7081 230.781 36.7081 230.619V230.585C36.7081 230.165 36.593 229.838 36.3629 229.605C36.1357 229.372 35.7905 229.256 35.3274 229.256C34.8473 229.256 34.4709 229.361 34.1982 229.571C33.9254 229.781 33.7337 230.006 33.6229 230.244L32.6683 229.903C32.8388 229.506 33.0661 229.196 33.3501 228.974C33.6371 228.75 33.9496 228.594 34.2876 228.506C34.6286 228.415 34.9638 228.369 35.2933 228.369C35.5036 228.369 35.745 228.395 36.0178 228.446C36.2933 228.494 36.5589 228.595 36.8146 228.749C37.0732 228.902 37.2876 229.134 37.4581 229.443C37.6286 229.753 37.7138 230.168 37.7138 230.688V235H36.7081V234.114H36.657C36.5888 234.256 36.4751 234.408 36.3161 234.57C36.157 234.732 35.9453 234.869 35.6811 234.983C35.4169 235.097 35.0945 235.153 34.7138 235.153ZM34.8672 234.25C35.2649 234.25 35.6001 234.172 35.8729 234.016C36.1484 233.859 36.3558 233.658 36.495 233.411C36.6371 233.163 36.7081 232.903 36.7081 232.631V231.71C36.6655 231.761 36.5717 231.808 36.4268 231.851C36.2848 231.891 36.12 231.926 35.9325 231.957C35.7479 231.986 35.5675 232.011 35.3913 232.034C35.218 232.054 35.0774 232.071 34.9695 232.085C34.7081 232.119 34.4638 232.175 34.2365 232.251C34.0121 232.325 33.8303 232.437 33.6911 232.588C33.5547 232.736 33.4865 232.937 33.4865 233.193C33.4865 233.543 33.6158 233.807 33.8743 233.986C34.1357 234.162 34.4666 234.25 34.8672 234.25ZM40.555 231.062V235H39.5494V228.455H40.521V229.477H40.6062C40.7596 229.145 40.9925 228.878 41.305 228.676C41.6175 228.472 42.021 228.369 42.5153 228.369C42.9585 228.369 43.3462 228.46 43.6786 228.642C44.011 228.821 44.2695 229.094 44.4542 229.46C44.6388 229.824 44.7312 230.284 44.7312 230.841V235H43.7255V230.909C43.7255 230.395 43.592 229.994 43.3249 229.707C43.0579 229.418 42.6914 229.273 42.2255 229.273C41.9045 229.273 41.6175 229.342 41.3647 229.482C41.1147 229.621 40.9173 229.824 40.7724 230.091C40.6275 230.358 40.555 230.682 40.555 231.062Z" fill="#4D5361"/>
<path d="M97.4205 235V226.273H102.653V227.21H98.4773V230.159H102.261V231.097H98.4773V235H97.4205ZM106.591 235.136C105.96 235.136 105.416 234.997 104.959 234.719C104.504 234.438 104.153 234.045 103.906 233.543C103.662 233.037 103.54 232.449 103.54 231.778C103.54 231.108 103.662 230.517 103.906 230.006C104.153 229.491 104.497 229.091 104.938 228.804C105.381 228.514 105.898 228.369 106.489 228.369C106.83 228.369 107.166 228.426 107.499 228.54C107.831 228.653 108.134 228.838 108.406 229.094C108.679 229.347 108.896 229.682 109.058 230.099C109.22 230.517 109.301 231.031 109.301 231.642V232.068H104.256V231.199H108.278C108.278 230.83 108.205 230.5 108.057 230.21C107.912 229.92 107.705 229.692 107.435 229.524C107.168 229.357 106.852 229.273 106.489 229.273C106.088 229.273 105.741 229.372 105.449 229.571C105.159 229.767 104.936 230.023 104.78 230.338C104.624 230.653 104.545 230.991 104.545 231.352V231.932C104.545 232.426 104.631 232.845 104.801 233.189C104.974 233.53 105.214 233.79 105.521 233.969C105.828 234.145 106.185 234.233 106.591 234.233C106.855 234.233 107.094 234.196 107.307 234.122C107.523 234.045 107.709 233.932 107.865 233.781C108.021 233.628 108.142 233.437 108.227 233.21L109.199 233.483C109.097 233.812 108.925 234.102 108.683 234.352C108.442 234.599 108.143 234.793 107.788 234.932C107.433 235.068 107.034 235.136 106.591 235.136ZM110.967 235V226.273H111.973V229.494H112.058C112.132 229.381 112.234 229.236 112.365 229.06C112.499 228.881 112.689 228.722 112.936 228.582C113.186 228.44 113.524 228.369 113.95 228.369C114.501 228.369 114.987 228.507 115.408 228.783C115.828 229.058 116.156 229.449 116.392 229.955C116.628 230.46 116.746 231.057 116.746 231.744C116.746 232.438 116.628 233.038 116.392 233.547C116.156 234.053 115.83 234.445 115.412 234.723C114.994 234.999 114.513 235.136 113.967 235.136C113.547 235.136 113.21 235.067 112.957 234.928C112.705 234.786 112.51 234.625 112.374 234.446C112.237 234.264 112.132 234.114 112.058 233.994H111.939V235H110.967ZM111.956 231.727C111.956 232.222 112.028 232.658 112.173 233.036C112.318 233.411 112.53 233.705 112.808 233.918C113.087 234.128 113.428 234.233 113.831 234.233C114.251 234.233 114.602 234.122 114.884 233.901C115.168 233.676 115.381 233.375 115.523 232.997C115.668 232.616 115.74 232.193 115.74 231.727C115.74 231.267 115.669 230.852 115.527 230.483C115.388 230.111 115.176 229.817 114.892 229.601C114.611 229.382 114.257 229.273 113.831 229.273C113.422 229.273 113.078 229.376 112.8 229.584C112.521 229.788 112.311 230.075 112.169 230.445C112.027 230.811 111.956 231.239 111.956 231.727Z" fill="#4D5361"/>
<path d="M168.833 226.273H170.094L173.06 233.517H173.162L176.128 226.273H177.39V235H176.401V228.369H176.316L173.589 235H172.634L169.907 228.369H169.822V235H168.833V226.273ZM181.298 235.153C180.884 235.153 180.507 235.075 180.169 234.919C179.831 234.76 179.563 234.531 179.364 234.233C179.165 233.932 179.066 233.568 179.066 233.142C179.066 232.767 179.139 232.463 179.287 232.23C179.435 231.994 179.632 231.81 179.879 231.676C180.127 231.543 180.399 231.443 180.698 231.378C180.999 231.31 181.301 231.256 181.605 231.216C182.003 231.165 182.325 231.126 182.573 231.101C182.823 231.072 183.004 231.026 183.118 230.96C183.235 230.895 183.293 230.781 183.293 230.619V230.585C183.293 230.165 183.178 229.838 182.948 229.605C182.72 229.372 182.375 229.256 181.912 229.256C181.432 229.256 181.056 229.361 180.783 229.571C180.51 229.781 180.318 230.006 180.208 230.244L179.253 229.903C179.423 229.506 179.651 229.196 179.935 228.974C180.222 228.75 180.534 228.594 180.872 228.506C181.213 228.415 181.548 228.369 181.878 228.369C182.088 228.369 182.33 228.395 182.602 228.446C182.878 228.494 183.144 228.595 183.399 228.749C183.658 228.902 183.872 229.134 184.043 229.443C184.213 229.753 184.298 230.168 184.298 230.688V235H183.293V234.114H183.242C183.173 234.256 183.06 234.408 182.901 234.57C182.742 234.732 182.53 234.869 182.266 234.983C182.002 235.097 181.679 235.153 181.298 235.153ZM181.452 234.25C181.85 234.25 182.185 234.172 182.458 234.016C182.733 233.859 182.941 233.658 183.08 233.411C183.222 233.163 183.293 232.903 183.293 232.631V231.71C183.25 231.761 183.156 231.808 183.012 231.851C182.87 231.891 182.705 231.926 182.517 231.957C182.333 231.986 182.152 232.011 181.976 232.034C181.803 232.054 181.662 232.071 181.554 232.085C181.293 232.119 181.048 232.175 180.821 232.251C180.597 232.325 180.415 232.437 180.276 232.588C180.139 232.736 180.071 232.937 180.071 233.193C180.071 233.543 180.2 233.807 180.459 233.986C180.72 234.162 181.051 234.25 181.452 234.25ZM186.134 235V228.455H187.106V229.443H187.174C187.293 229.119 187.509 228.857 187.822 228.655C188.134 228.453 188.486 228.352 188.878 228.352C188.952 228.352 189.045 228.354 189.155 228.357C189.266 228.359 189.35 228.364 189.407 228.369V229.392C189.373 229.384 189.295 229.371 189.172 229.354C189.053 229.334 188.927 229.324 188.793 229.324C188.475 229.324 188.191 229.391 187.941 229.524C187.694 229.655 187.498 229.837 187.353 230.07C187.211 230.3 187.14 230.562 187.14 230.858V235H186.134Z" fill="#4D5361"/>
<path d="M241.562 235H240.454L243.659 226.273H244.75L247.954 235H246.846L244.238 227.653H244.17L241.562 235ZM241.971 231.591H246.437V232.528H241.971V231.591ZM249.177 237.455V228.455H250.149V229.494H250.268C250.342 229.381 250.444 229.236 250.575 229.06C250.709 228.881 250.899 228.722 251.146 228.582C251.396 228.44 251.734 228.369 252.16 228.369C252.711 228.369 253.197 228.507 253.618 228.783C254.038 229.058 254.366 229.449 254.602 229.955C254.838 230.46 254.956 231.057 254.956 231.744C254.956 232.438 254.838 233.038 254.602 233.547C254.366 234.053 254.04 234.445 253.622 234.723C253.204 234.999 252.723 235.136 252.177 235.136C251.757 235.136 251.42 235.067 251.167 234.928C250.915 234.786 250.72 234.625 250.584 234.446C250.447 234.264 250.342 234.114 250.268 233.994H250.183V237.455H249.177ZM250.166 231.727C250.166 232.222 250.238 232.658 250.383 233.036C250.528 233.411 250.74 233.705 251.018 233.918C251.297 234.128 251.638 234.233 252.041 234.233C252.461 234.233 252.812 234.122 253.094 233.901C253.378 233.676 253.591 233.375 253.733 232.997C253.878 232.616 253.95 232.193 253.95 231.727C253.95 231.267 253.879 230.852 253.737 230.483C253.598 230.111 253.386 229.817 253.102 229.601C252.821 229.382 252.467 229.273 252.041 229.273C251.632 229.273 251.288 229.376 251.01 229.584C250.731 229.788 250.521 230.075 250.379 230.445C250.237 230.811 250.166 231.239 250.166 231.727ZM256.49 235V228.455H257.461V229.443H257.53C257.649 229.119 257.865 228.857 258.177 228.655C258.49 228.453 258.842 228.352 259.234 228.352C259.308 228.352 259.4 228.354 259.511 228.357C259.622 228.359 259.706 228.364 259.763 228.369V229.392C259.728 229.384 259.65 229.371 259.528 229.354C259.409 229.334 259.282 229.324 259.149 229.324C258.831 229.324 258.547 229.391 258.297 229.524C258.05 229.655 257.853 229.837 257.709 230.07C257.567 230.3 257.496 230.562 257.496 230.858V235H256.49Z" fill="#4D5361"/>
<path d="M311.57 226.273H312.831L315.797 233.517H315.899L318.865 226.273H320.127V235H319.138V228.369H319.053L316.326 235H315.371L312.644 228.369H312.559V235H311.57V226.273ZM324.035 235.153C323.621 235.153 323.244 235.075 322.906 234.919C322.568 234.76 322.3 234.531 322.101 234.233C321.902 233.932 321.803 233.568 321.803 233.142C321.803 232.767 321.876 232.463 322.024 232.23C322.172 231.994 322.369 231.81 322.616 231.676C322.864 231.543 323.136 231.443 323.435 231.378C323.736 231.31 324.038 231.256 324.342 231.216C324.74 231.165 325.062 231.126 325.31 231.101C325.56 231.072 325.741 231.026 325.855 230.96C325.972 230.895 326.03 230.781 326.03 230.619V230.585C326.03 230.165 325.915 229.838 325.685 229.605C325.457 229.372 325.112 229.256 324.649 229.256C324.169 229.256 323.793 229.361 323.52 229.571C323.247 229.781 323.055 230.006 322.945 230.244L321.99 229.903C322.16 229.506 322.388 229.196 322.672 228.974C322.959 228.75 323.271 228.594 323.609 228.506C323.95 228.415 324.285 228.369 324.615 228.369C324.825 228.369 325.067 228.395 325.339 228.446C325.615 228.494 325.881 228.595 326.136 228.749C326.395 228.902 326.609 229.134 326.78 229.443C326.95 229.753 327.035 230.168 327.035 230.688V235H326.03V234.114H325.979C325.91 234.256 325.797 234.408 325.638 234.57C325.479 234.732 325.267 234.869 325.003 234.983C324.739 235.097 324.416 235.153 324.035 235.153ZM324.189 234.25C324.587 234.25 324.922 234.172 325.195 234.016C325.47 233.859 325.678 233.658 325.817 233.411C325.959 233.163 326.03 232.903 326.03 232.631V231.71C325.987 231.761 325.893 231.808 325.749 231.851C325.607 231.891 325.442 231.926 325.254 231.957C325.07 231.986 324.889 232.011 324.713 232.034C324.54 232.054 324.399 232.071 324.291 232.085C324.03 232.119 323.785 232.175 323.558 232.251C323.334 232.325 323.152 232.437 323.013 232.588C322.876 232.736 322.808 232.937 322.808 233.193C322.808 233.543 322.937 233.807 323.196 233.986C323.457 234.162 323.788 234.25 324.189 234.25ZM329.284 237.455C329.114 237.455 328.962 237.44 328.828 237.412C328.695 237.386 328.603 237.361 328.551 237.335L328.807 236.449C329.051 236.511 329.267 236.534 329.455 236.517C329.642 236.5 329.809 236.416 329.953 236.266C330.101 236.118 330.236 235.878 330.358 235.545L330.546 235.034L328.125 228.455H329.216L331.023 233.67H331.091L332.898 228.455H333.989L331.211 235.955C331.086 236.293 330.931 236.572 330.746 236.794C330.561 237.018 330.347 237.185 330.103 237.293C329.861 237.401 329.588 237.455 329.284 237.455Z" fill="#4D5361"/>
<path d="M389.462 226.273H390.519V232.511C390.519 233.068 390.417 233.541 390.212 233.93C390.007 234.32 389.719 234.615 389.347 234.817C388.975 235.018 388.536 235.119 388.03 235.119C387.553 235.119 387.128 235.033 386.756 234.859C386.384 234.683 386.091 234.433 385.878 234.109C385.665 233.786 385.559 233.401 385.559 232.955H386.598C386.598 233.202 386.659 233.418 386.782 233.602C386.907 233.784 387.077 233.926 387.293 234.028C387.509 234.131 387.755 234.182 388.03 234.182C388.334 234.182 388.593 234.118 388.806 233.99C389.019 233.862 389.181 233.675 389.292 233.428C389.405 233.178 389.462 232.872 389.462 232.511V226.273ZM396.625 232.324V228.455H397.631V235H396.625V233.892H396.557C396.404 234.224 396.165 234.507 395.841 234.74C395.517 234.97 395.108 235.085 394.614 235.085C394.205 235.085 393.841 234.996 393.523 234.817C393.205 234.635 392.955 234.362 392.773 233.999C392.591 233.632 392.5 233.17 392.5 232.614V228.455H393.506V232.545C393.506 233.023 393.64 233.403 393.907 233.688C394.176 233.972 394.52 234.114 394.938 234.114C395.188 234.114 395.442 234.05 395.701 233.922C395.962 233.794 396.181 233.598 396.357 233.334C396.536 233.07 396.625 232.733 396.625 232.324ZM400.479 231.062V235H399.473V228.455H400.445V229.477H400.53C400.683 229.145 400.916 228.878 401.229 228.676C401.541 228.472 401.945 228.369 402.439 228.369C402.882 228.369 403.27 228.46 403.602 228.642C403.935 228.821 404.193 229.094 404.378 229.46C404.562 229.824 404.655 230.284 404.655 230.841V235H403.649V230.909C403.649 230.395 403.516 229.994 403.249 229.707C402.982 229.418 402.615 229.273 402.149 229.273C401.828 229.273 401.541 229.342 401.288 229.482C401.038 229.621 400.841 229.824 400.696 230.091C400.551 230.358 400.479 230.682 400.479 231.062Z" fill="#4D5361"/>
<path d="M460.912 226.273H461.968V232.511C461.968 233.068 461.866 233.541 461.662 233.93C461.457 234.32 461.169 234.615 460.797 234.817C460.424 235.018 459.985 235.119 459.48 235.119C459.002 235.119 458.578 235.033 458.206 234.859C457.833 234.683 457.541 234.433 457.328 234.109C457.115 233.786 457.008 233.401 457.008 232.955H458.048C458.048 233.202 458.109 233.418 458.231 233.602C458.356 233.784 458.527 233.926 458.743 234.028C458.958 234.131 459.204 234.182 459.48 234.182C459.784 234.182 460.042 234.118 460.255 233.99C460.468 233.862 460.63 233.675 460.741 233.428C460.855 233.178 460.912 232.872 460.912 232.511V226.273ZM468.075 232.324V228.455H469.081V235H468.075V233.892H468.007C467.853 234.224 467.615 234.507 467.291 234.74C466.967 234.97 466.558 235.085 466.064 235.085C465.654 235.085 465.291 234.996 464.973 234.817C464.654 234.635 464.404 234.362 464.223 233.999C464.041 233.632 463.95 233.17 463.95 232.614V228.455H464.956V232.545C464.956 233.023 465.089 233.403 465.356 233.688C465.626 233.972 465.97 234.114 466.387 234.114C466.637 234.114 466.892 234.05 467.15 233.922C467.412 233.794 467.63 233.598 467.806 233.334C467.985 233.07 468.075 232.733 468.075 232.324ZM471.928 226.273V235H470.923V226.273H471.928Z" fill="#4D5361"/>
<path d="M525.263 235H524.155L527.36 226.273H528.45L531.655 235H530.547L527.939 227.653H527.871L525.263 235ZM525.672 231.591H530.138V232.528H525.672V231.591ZM537.003 232.324V228.455H538.009V235H537.003V233.892H536.935C536.781 234.224 536.543 234.507 536.219 234.74C535.895 234.97 535.486 235.085 534.992 235.085C534.583 235.085 534.219 234.996 533.901 234.817C533.583 234.635 533.333 234.362 533.151 233.999C532.969 233.632 532.878 233.17 532.878 232.614V228.455H533.884V232.545C533.884 233.023 534.017 233.403 534.284 233.688C534.554 233.972 534.898 234.114 535.315 234.114C535.565 234.114 535.82 234.05 536.078 233.922C536.34 233.794 536.558 233.598 536.735 233.334C536.913 233.07 537.003 232.733 537.003 232.324ZM542.493 237.591C542.007 237.591 541.589 237.528 541.24 237.403C540.89 237.281 540.599 237.119 540.366 236.918C540.136 236.719 539.953 236.506 539.817 236.278L540.618 235.716C540.709 235.835 540.824 235.972 540.963 236.125C541.102 236.281 541.292 236.416 541.534 236.53C541.778 236.646 542.098 236.705 542.493 236.705C543.021 236.705 543.457 236.577 543.801 236.321C544.145 236.065 544.317 235.665 544.317 235.119V233.79H544.231C544.157 233.909 544.052 234.057 543.916 234.233C543.782 234.406 543.589 234.561 543.336 234.697C543.086 234.831 542.748 234.898 542.322 234.898C541.794 234.898 541.319 234.773 540.899 234.523C540.481 234.273 540.15 233.909 539.906 233.432C539.665 232.955 539.544 232.375 539.544 231.693C539.544 231.023 539.662 230.439 539.898 229.942C540.133 229.442 540.461 229.055 540.882 228.783C541.302 228.507 541.788 228.369 542.339 228.369C542.765 228.369 543.103 228.44 543.353 228.582C543.606 228.722 543.799 228.881 543.933 229.06C544.069 229.236 544.174 229.381 544.248 229.494H544.351V228.455H545.322V235.188C545.322 235.75 545.194 236.207 544.939 236.56C544.686 236.915 544.345 237.175 543.916 237.339C543.49 237.507 543.015 237.591 542.493 237.591ZM542.459 233.994C542.862 233.994 543.203 233.902 543.481 233.717C543.76 233.533 543.971 233.267 544.116 232.92C544.261 232.574 544.334 232.159 544.334 231.676C544.334 231.205 544.263 230.788 544.121 230.428C543.978 230.067 543.768 229.784 543.49 229.58C543.211 229.375 542.868 229.273 542.459 229.273C542.032 229.273 541.677 229.381 541.393 229.597C541.112 229.812 540.9 230.102 540.758 230.466C540.619 230.83 540.549 231.233 540.549 231.676C540.549 232.131 540.621 232.533 540.763 232.882C540.907 233.229 541.121 233.501 541.402 233.7C541.686 233.896 542.038 233.994 542.459 233.994Z" fill="#4D5361"/>
<path d="M602.764 228.455C602.713 228.023 602.506 227.688 602.142 227.449C601.778 227.21 601.332 227.091 600.804 227.091C600.418 227.091 600.079 227.153 599.79 227.278C599.503 227.403 599.278 227.575 599.116 227.794C598.957 228.013 598.878 228.261 598.878 228.54C598.878 228.773 598.933 228.973 599.044 229.141C599.158 229.305 599.302 229.443 599.479 229.554C599.655 229.662 599.839 229.751 600.033 229.822C600.226 229.891 600.403 229.946 600.565 229.989L601.452 230.227C601.679 230.287 601.932 230.369 602.21 230.474C602.491 230.58 602.76 230.723 603.016 230.905C603.274 231.084 603.487 231.314 603.655 231.595C603.822 231.876 603.906 232.222 603.906 232.631C603.906 233.102 603.783 233.528 603.535 233.909C603.291 234.29 602.933 234.592 602.462 234.817C601.993 235.041 601.423 235.153 600.753 235.153C600.128 235.153 599.587 235.053 599.129 234.851C598.675 234.649 598.317 234.368 598.055 234.007C597.797 233.646 597.65 233.227 597.616 232.75H598.707C598.736 233.08 598.847 233.352 599.04 233.568C599.236 233.781 599.483 233.94 599.781 234.045C600.082 234.148 600.406 234.199 600.753 234.199C601.156 234.199 601.518 234.134 601.839 234.003C602.16 233.869 602.415 233.685 602.602 233.449C602.79 233.21 602.883 232.932 602.883 232.614C602.883 232.324 602.802 232.088 602.641 231.906C602.479 231.724 602.266 231.577 602.001 231.463C601.737 231.349 601.452 231.25 601.145 231.165L600.071 230.858C599.389 230.662 598.849 230.382 598.452 230.018C598.054 229.655 597.855 229.179 597.855 228.591C597.855 228.102 597.987 227.676 598.251 227.312C598.518 226.946 598.876 226.662 599.325 226.46C599.777 226.256 600.281 226.153 600.838 226.153C601.4 226.153 601.9 226.254 602.338 226.456C602.775 226.655 603.122 226.928 603.378 227.274C603.636 227.621 603.773 228.014 603.787 228.455H602.764ZM608.252 235.136C607.621 235.136 607.077 234.997 606.62 234.719C606.165 234.438 605.814 234.045 605.567 233.543C605.323 233.037 605.201 232.449 605.201 231.778C605.201 231.108 605.323 230.517 605.567 230.006C605.814 229.491 606.158 229.091 606.598 228.804C607.041 228.514 607.559 228.369 608.149 228.369C608.49 228.369 608.827 228.426 609.159 228.54C609.492 228.653 609.794 228.838 610.067 229.094C610.34 229.347 610.557 229.682 610.719 230.099C610.881 230.517 610.962 231.031 610.962 231.642V232.068H605.916V231.199H609.939C609.939 230.83 609.865 230.5 609.718 230.21C609.573 229.92 609.365 229.692 609.095 229.524C608.828 229.357 608.513 229.273 608.149 229.273C607.749 229.273 607.402 229.372 607.11 229.571C606.82 229.767 606.597 230.023 606.441 230.338C606.284 230.653 606.206 230.991 606.206 231.352V231.932C606.206 232.426 606.291 232.845 606.462 233.189C606.635 233.53 606.875 233.79 607.182 233.969C607.489 234.145 607.845 234.233 608.252 234.233C608.516 234.233 608.755 234.196 608.968 234.122C609.184 234.045 609.37 233.932 609.526 233.781C609.682 233.628 609.803 233.437 609.888 233.21L610.86 233.483C610.757 233.812 610.585 234.102 610.344 234.352C610.103 234.599 609.804 234.793 609.449 234.932C609.094 235.068 608.695 235.136 608.252 235.136ZM612.492 237.455V228.455H613.463V229.494H613.583C613.657 229.381 613.759 229.236 613.889 229.06C614.023 228.881 614.213 228.722 614.46 228.582C614.71 228.44 615.049 228.369 615.475 228.369C616.026 228.369 616.512 228.507 616.932 228.783C617.353 229.058 617.681 229.449 617.916 229.955C618.152 230.46 618.27 231.057 618.27 231.744C618.27 232.438 618.152 233.038 617.916 233.547C617.681 234.053 617.354 234.445 616.936 234.723C616.519 234.999 616.037 235.136 615.492 235.136C615.071 235.136 614.735 235.067 614.482 234.928C614.229 234.786 614.034 234.625 613.898 234.446C613.762 234.264 613.657 234.114 613.583 233.994H613.497V237.455H612.492ZM613.48 231.727C613.48 232.222 613.553 232.658 613.698 233.036C613.843 233.411 614.054 233.705 614.333 233.918C614.611 234.128 614.952 234.233 615.355 234.233C615.776 234.233 616.127 234.122 616.408 233.901C616.692 233.676 616.905 233.375 617.047 232.997C617.192 232.616 617.264 232.193 617.264 231.727C617.264 231.267 617.193 230.852 617.051 230.483C616.912 230.111 616.701 229.817 616.416 229.601C616.135 229.382 615.782 229.273 615.355 229.273C614.946 229.273 614.603 229.376 614.324 229.584C614.046 229.788 613.835 230.075 613.693 230.445C613.551 230.811 613.48 231.239 613.48 231.727Z" fill="#4D5361"/>
<path d="M678.092 230.636C678.092 231.557 677.925 232.352 677.593 233.023C677.261 233.693 676.805 234.21 676.225 234.574C675.646 234.938 674.984 235.119 674.239 235.119C673.495 235.119 672.833 234.938 672.254 234.574C671.674 234.21 671.218 233.693 670.886 233.023C670.553 232.352 670.387 231.557 670.387 230.636C670.387 229.716 670.553 228.92 670.886 228.25C671.218 227.58 671.674 227.062 672.254 226.699C672.833 226.335 673.495 226.153 674.239 226.153C674.984 226.153 675.646 226.335 676.225 226.699C676.805 227.062 677.261 227.58 677.593 228.25C677.925 228.92 678.092 229.716 678.092 230.636ZM677.069 230.636C677.069 229.881 676.942 229.243 676.69 228.723C676.44 228.203 676.1 227.81 675.671 227.543C675.245 227.276 674.768 227.142 674.239 227.142C673.711 227.142 673.232 227.276 672.803 227.543C672.377 227.81 672.038 228.203 671.785 228.723C671.535 229.243 671.41 229.881 671.41 230.636C671.41 231.392 671.535 232.03 671.785 232.55C672.038 233.07 672.377 233.463 672.803 233.73C673.232 233.997 673.711 234.131 674.239 234.131C674.768 234.131 675.245 233.997 675.671 233.73C676.1 233.463 676.44 233.07 676.69 232.55C676.942 232.03 677.069 231.392 677.069 230.636ZM682.391 235.136C681.778 235.136 681.249 234.991 680.806 234.702C680.363 234.412 680.022 234.013 679.783 233.504C679.545 232.996 679.425 232.415 679.425 231.761C679.425 231.097 679.548 230.51 679.792 230.001C680.039 229.49 680.383 229.091 680.823 228.804C681.266 228.514 681.783 228.369 682.374 228.369C682.834 228.369 683.249 228.455 683.619 228.625C683.988 228.795 684.29 229.034 684.526 229.341C684.762 229.648 684.908 230.006 684.965 230.415H683.959C683.883 230.116 683.712 229.852 683.448 229.622C683.187 229.389 682.834 229.273 682.391 229.273C681.999 229.273 681.656 229.375 681.36 229.58C681.067 229.781 680.839 230.067 680.674 230.436C680.512 230.803 680.431 231.233 680.431 231.727C680.431 232.233 680.511 232.673 680.67 233.048C680.832 233.423 681.059 233.714 681.352 233.922C681.647 234.129 681.994 234.233 682.391 234.233C682.653 234.233 682.89 234.188 683.103 234.097C683.316 234.006 683.496 233.875 683.644 233.705C683.792 233.534 683.897 233.33 683.959 233.091H684.965C684.908 233.477 684.768 233.825 684.543 234.135C684.322 234.442 684.028 234.686 683.661 234.868C683.298 235.047 682.874 235.136 682.391 235.136ZM689.282 228.455V229.307H685.89V228.455H689.282ZM686.879 226.886H687.884V233.125C687.884 233.409 687.925 233.622 688.008 233.764C688.093 233.903 688.201 233.997 688.332 234.045C688.465 234.091 688.606 234.114 688.754 234.114C688.864 234.114 688.955 234.108 689.026 234.097C689.097 234.082 689.154 234.071 689.197 234.062L689.401 234.966C689.333 234.991 689.238 235.017 689.116 235.043C688.994 235.071 688.839 235.085 688.651 235.085C688.367 235.085 688.089 235.024 687.816 234.902C687.546 234.78 687.322 234.594 687.143 234.344C686.967 234.094 686.879 233.778 686.879 233.398V226.886Z" fill="#4D5361"/>
<path d="M748.793 226.273V235H747.771L743.015 228.148H742.93V235H741.873V226.273H742.896L747.668 233.142H747.754V226.273H748.793ZM753.431 235.136C752.84 235.136 752.321 234.996 751.875 234.714C751.432 234.433 751.086 234.04 750.836 233.534C750.589 233.028 750.465 232.437 750.465 231.761C750.465 231.08 750.589 230.484 750.836 229.976C751.086 229.467 751.432 229.072 751.875 228.791C752.321 228.51 752.84 228.369 753.431 228.369C754.022 228.369 754.539 228.51 754.982 228.791C755.428 229.072 755.775 229.467 756.022 229.976C756.272 230.484 756.397 231.08 756.397 231.761C756.397 232.437 756.272 233.028 756.022 233.534C755.775 234.04 755.428 234.433 754.982 234.714C754.539 234.996 754.022 235.136 753.431 235.136ZM753.431 234.233C753.88 234.233 754.249 234.118 754.539 233.888C754.829 233.658 755.043 233.355 755.182 232.98C755.321 232.605 755.391 232.199 755.391 231.761C755.391 231.324 755.321 230.916 755.182 230.538C755.043 230.161 754.829 229.855 754.539 229.622C754.249 229.389 753.88 229.273 753.431 229.273C752.982 229.273 752.613 229.389 752.323 229.622C752.033 229.855 751.819 230.161 751.679 230.538C751.54 230.916 751.471 231.324 751.471 231.761C751.471 232.199 751.54 232.605 751.679 232.98C751.819 233.355 752.033 233.658 752.323 233.888C752.613 234.118 752.982 234.233 753.431 234.233ZM763.05 228.455L760.629 235H759.607L757.186 228.455H758.277L760.084 233.67H760.152L761.959 228.455H763.05Z" fill="#4D5361"/>
<path d="M818.094 235H815.401V226.273H818.213C819.06 226.273 819.784 226.447 820.386 226.797C820.989 227.143 821.45 227.642 821.771 228.293C822.092 228.94 822.253 229.716 822.253 230.619C822.253 231.528 822.091 232.311 821.767 232.967C821.443 233.621 820.972 234.124 820.352 234.476C819.733 234.825 818.98 235 818.094 235ZM816.457 234.062H818.026C818.747 234.062 819.345 233.923 819.82 233.645C820.294 233.366 820.648 232.97 820.881 232.456C821.114 231.942 821.23 231.33 821.23 230.619C821.23 229.915 821.115 229.308 820.885 228.8C820.655 228.288 820.311 227.896 819.854 227.624C819.396 227.348 818.827 227.21 818.145 227.21H816.457V234.062ZM826.634 235.136C826.003 235.136 825.459 234.997 825.001 234.719C824.547 234.438 824.196 234.045 823.949 233.543C823.705 233.037 823.582 232.449 823.582 231.778C823.582 231.108 823.705 230.517 823.949 230.006C824.196 229.491 824.54 229.091 824.98 228.804C825.423 228.514 825.94 228.369 826.531 228.369C826.872 228.369 827.209 228.426 827.541 228.54C827.874 228.653 828.176 228.838 828.449 229.094C828.722 229.347 828.939 229.682 829.101 230.099C829.263 230.517 829.344 231.031 829.344 231.642V232.068H824.298V231.199H828.321C828.321 230.83 828.247 230.5 828.099 230.21C827.955 229.92 827.747 229.692 827.477 229.524C827.21 229.357 826.895 229.273 826.531 229.273C826.131 229.273 825.784 229.372 825.491 229.571C825.202 229.767 824.979 230.023 824.822 230.338C824.666 230.653 824.588 230.991 824.588 231.352V231.932C824.588 232.426 824.673 232.845 824.844 233.189C825.017 233.53 825.257 233.79 825.564 233.969C825.871 234.145 826.227 234.233 826.634 234.233C826.898 234.233 827.136 234.196 827.349 234.122C827.565 234.045 827.751 233.932 827.908 233.781C828.064 233.628 828.185 233.437 828.27 233.21L829.241 233.483C829.139 233.812 828.967 234.102 828.726 234.352C828.484 234.599 828.186 234.793 827.831 234.932C827.476 235.068 827.077 235.136 826.634 235.136ZM833.533 235.136C832.919 235.136 832.391 234.991 831.947 234.702C831.504 234.412 831.163 234.013 830.925 233.504C830.686 232.996 830.567 232.415 830.567 231.761C830.567 231.097 830.689 230.51 830.933 230.001C831.18 229.49 831.524 229.091 831.964 228.804C832.408 228.514 832.925 228.369 833.516 228.369C833.976 228.369 834.391 228.455 834.76 228.625C835.129 228.795 835.432 229.034 835.668 229.341C835.903 229.648 836.05 230.006 836.107 230.415H835.101C835.024 230.116 834.854 229.852 834.589 229.622C834.328 229.389 833.976 229.273 833.533 229.273C833.141 229.273 832.797 229.375 832.501 229.58C832.209 229.781 831.98 230.067 831.815 230.436C831.653 230.803 831.572 231.233 831.572 231.727C831.572 232.233 831.652 232.673 831.811 233.048C831.973 233.423 832.2 233.714 832.493 233.922C832.788 234.129 833.135 234.233 833.533 234.233C833.794 234.233 834.031 234.188 834.244 234.097C834.457 234.006 834.638 233.875 834.786 233.705C834.933 233.534 835.038 233.33 835.101 233.091H836.107C836.05 233.477 835.909 233.825 835.685 234.135C835.463 234.442 835.169 234.686 834.803 234.868C834.439 235.047 834.016 235.136 833.533 235.136Z" fill="#4D5361"/>
<g style="mix-blend-mode:multiply" opacity="0.1">
<path d="M20.4901 90.7351L1 94.2969V213H861V51.0312L842.728 56.9468H823.238L814.102 62.4859H801.921C798.672 63.409 791.932 65.2554 790.958 65.2554C789.983 65.2554 783.649 66.3632 780.603 66.9171L754.414 68.5788L739.187 70.7945L714.824 68.5788L702.034 66.9171L683.762 70.7945H664.881L649.045 66.9171C642.955 66.3632 630.53 65.2554 629.555 65.2554C628.581 65.2554 620.622 64.1476 616.765 63.5937H607.02L583.875 65.2554L563.776 66.9171L554.64 70.7945L527.232 72.4562L513.224 74.1179L497.388 76.8874L482.161 83.5343H475.462L457.19 81.8726L439.527 76.8874L424.3 74.1179H415.164L399.329 72.4562L376.793 74.1179H355.476L334.159 76.8874L312.841 80.2109L297.006 83.5343L279.952 85.196L256.807 83.5343L238.535 85.196L220.263 86.8578L203.21 85.196L180.065 89.0734L160.575 86.8578L141.085 89.0734H122.204L102.105 90.7351H81.3966L60.6884 92.3968L40.5892 89.0734L20.4901 90.7351Z" fill="url(#paint0_linear_708_200923)"/>
</g>
<path d="M1 94.2969L20.4901 90.7351L40.5892 89.0734L60.6884 92.3968L81.3966 90.7351H102.105L122.204 89.0734H141.085L160.575 86.8578L180.065 89.0734L203.21 85.196L220.263 86.8578L238.535 85.196L256.807 83.5343L279.952 85.196L297.006 83.5343L312.841 80.2109L334.159 76.8874L355.476 74.1179H376.793L399.329 72.4562L415.164 74.1179H424.3L439.527 76.8874L457.19 81.8726L475.462 83.5343H482.161L497.388 76.8874L513.224 74.1179L527.232 72.4562L554.64 70.7945L563.776 66.9171L583.875 65.2554L607.02 63.5937H616.765C620.622 64.1476 628.581 65.2554 629.555 65.2554C630.53 65.2554 642.955 66.3632 649.045 66.9171L664.881 70.7945H683.762L702.034 66.9171L714.824 68.5788L739.187 70.7945L754.414 68.5788L780.603 66.9171C783.649 66.3632 789.983 65.2554 790.958 65.2554C791.932 65.2554 798.672 63.409 801.921 62.4859H814.102L823.238 56.9468H842.728L861 51.0312" stroke="#151923" stroke-width="2" stroke-linecap="round" stroke-linejoin="round"/>
<defs>
<linearGradient id="paint0_linear_708_200923" x1="782.494" y1="51.0313" x2="782.494" y2="222.553" gradientUnits="userSpaceOnUse">
<stop offset="0.186099" stop-color="#12B76A"/>
<stop offset="1" stop-color="#12B76A" stop-opacity="0"/>
</linearGradient>
</defs>
</svg>
