<svg width="16" height="16" viewBox="0 0 16 16" fill="none" xmlns="http://www.w3.org/2000/svg">
<g id="copy-01" clip-path="url(#clip0_464_57130)">
<path id="Icon" d="M3.33301 10.0002C2.71175 10.0002 2.40112 10.0002 2.1561 9.89867C1.82939 9.76334 1.56983 9.50378 1.4345 9.17707C1.33301 8.93205 1.33301 8.62142 1.33301 8.00016V3.46683C1.33301 2.72009 1.33301 2.34672 1.47833 2.06151C1.60616 1.81063 1.81014 1.60665 2.06102 1.47882C2.34624 1.3335 2.7196 1.3335 3.46634 1.3335H7.99967C8.62093 1.3335 8.93156 1.3335 9.17659 1.43499C9.50329 1.57032 9.76286 1.82988 9.89818 2.15658C9.99967 2.40161 9.99967 2.71224 9.99967 3.3335M8.13301 14.6668H12.533C13.2797 14.6668 13.6531 14.6668 13.9383 14.5215C14.1892 14.3937 14.3932 14.1897 14.521 13.9388C14.6663 13.6536 14.6663 13.2802 14.6663 12.5335V8.1335C14.6663 7.38676 14.6663 7.01339 14.521 6.72818C14.3932 6.47729 14.1892 6.27332 13.9383 6.14549C13.6531 6.00016 13.2797 6.00016 12.533 6.00016H8.13301C7.38627 6.00016 7.0129 6.00016 6.72769 6.14549C6.4768 6.27332 6.27283 6.47729 6.145 6.72818C5.99967 7.01339 5.99967 7.38676 5.99967 8.1335V12.5335C5.99967 13.2802 5.99967 13.6536 6.145 13.9388C6.27283 14.1897 6.4768 14.3937 6.72769 14.5215C7.0129 14.6668 7.38627 14.6668 8.13301 14.6668Z" stroke="#9EA2AC" stroke-width="1.3" stroke-linecap="round" stroke-linejoin="round"/>
</g>
<defs>
<clipPath id="clip0_464_57130">
<rect width="16" height="16" fill="white"/>
</clipPath>
</defs>
</svg>
