<svg width="20" height="20" viewBox="0 0 20 20" fill="none" xmlns="http://www.w3.org/2000/svg">
<g id="Group 487">
<path id="Ellipse 22" d="M20 10C20 15.5228 15.5228 20 10 20C4.47715 20 0 15.5228 0 10C0 4.47715 4.47715 0 10 0C15.5228 0 20 4.47715 20 10ZM2.5 10C2.5 14.1421 5.85786 17.5 10 17.5C14.1421 17.5 17.5 14.1421 17.5 10C17.5 5.85786 14.1421 2.5 10 2.5C5.85786 2.5 2.5 5.85786 2.5 10Z" fill="#D9D9D9"/>
<path id="Ellipse 23" d="M10 1.25C10 0.559644 10.5618 -0.00805004 11.2468 0.0780225C12.6008 0.248165 13.9102 0.694273 15.0923 1.39367C16.6342 2.30601 17.9027 3.61585 18.7651 5.18623C19.6276 6.75661 20.0523 8.52985 19.9949 10.3205C19.9374 12.1112 19.4 13.8536 18.4387 15.3655C17.4774 16.8774 16.1276 18.1033 14.5303 18.9149C12.9331 19.7266 11.1472 20.0943 9.35923 19.9795C7.5713 19.8646 5.84703 19.2716 4.36674 18.2623C3.23194 17.4886 2.27247 16.4921 1.54399 15.3382C1.17547 14.7544 1.45122 14.0048 2.07637 13.712C2.70153 13.4191 3.43774 13.6964 3.83027 14.2643C4.35228 15.0196 5.01063 15.6756 5.77505 16.1968C6.88528 16.9537 8.17847 17.3985 9.51942 17.4846C10.8604 17.5707 12.1998 17.2949 13.3977 16.6862C14.5957 16.0775 15.608 15.1581 16.329 14.0241C17.05 12.8902 17.4531 11.5834 17.4961 10.2404C17.5392 8.89739 17.2207 7.56746 16.5739 6.38967C15.927 5.21189 14.9756 4.22951 13.8192 3.54525C13.023 3.07413 12.1496 2.75624 11.2442 2.60393C10.5634 2.48939 10 1.94036 10 1.25Z" fill="#07924F"/>
</g>
</svg>
