<svg width="23" height="14" viewBox="0 0 23 14" fill="none" xmlns="http://www.w3.org/2000/svg">
<g id="Mastercard">
<path id="Left" fill-rule="evenodd" clip-rule="evenodd" d="M11.179 12.3292C9.99493 13.3273 8.45902 13.9298 6.78069 13.9298C3.03582 13.9298 0 10.9301 0 7.22978C0 3.52948 3.03582 0.529785 6.78069 0.529785C8.45902 0.529785 9.99493 1.13228 11.179 2.13033C12.363 1.13228 13.8989 0.529785 15.5773 0.529785C19.3221 0.529785 22.358 3.52948 22.358 7.22978C22.358 10.9301 19.3221 13.9298 15.5773 13.9298C13.8989 13.9298 12.363 13.3273 11.179 12.3292Z" fill="#ED0006"/>
<path id="Right" fill-rule="evenodd" clip-rule="evenodd" d="M11.1797 12.3292C12.6376 11.1003 13.5621 9.27174 13.5621 7.22978C13.5621 5.18783 12.6376 3.35923 11.1797 2.13032C12.3637 1.13228 13.8996 0.529785 15.578 0.529785C19.3228 0.529785 22.3587 3.52948 22.3587 7.22978C22.3587 10.9301 19.3228 13.9298 15.578 13.9298C13.8996 13.9298 12.3637 13.3273 11.1797 12.3292Z" fill="#F9A000"/>
<path id="Middle" fill-rule="evenodd" clip-rule="evenodd" d="M11.1793 12.3292C12.6372 11.1003 13.5616 9.27175 13.5616 7.22981C13.5616 5.18787 12.6372 3.35927 11.1793 2.13037C9.72133 3.35927 8.79688 5.18787 8.79688 7.22981C8.79688 9.27175 9.72133 11.1003 11.1793 12.3292Z" fill="#FF5E00"/>
</g>
</svg>