<svg width="24" height="25" viewBox="0 0 24 25" fill="none" xmlns="http://www.w3.org/2000/svg">
<g id="bell-02">
<path id="Icon" d="M14 21.334H9.99999M18 8.33398C18 6.74269 17.3678 5.21656 16.2426 4.09134C15.1174 2.96613 13.5913 2.33398 12 2.33398C10.4087 2.33398 8.88257 2.96613 7.75735 4.09134C6.63213 5.21656 5.99999 6.74269 5.99999 8.33398C5.99999 11.4242 5.22046 13.5399 4.34965 14.9394C3.61512 16.1199 3.24785 16.7101 3.26131 16.8747C3.27622 17.0571 3.31485 17.1266 3.46176 17.2356C3.59445 17.334 4.19258 17.334 5.38884 17.334H18.6111C19.8074 17.334 20.4055 17.334 20.5382 17.2356C20.6851 17.1266 20.7238 17.0571 20.7387 16.8747C20.7521 16.7101 20.3849 16.1199 19.6503 14.9394C18.7795 13.5399 18 11.4242 18 8.33398Z" stroke="white" stroke-width="2" stroke-linecap="round" stroke-linejoin="round"/>
</g>
</svg>
