<svg width="17" height="18" viewBox="0 0 17 18" fill="none" xmlns="http://www.w3.org/2000/svg">
<g clip-path="url(#clip0_64_22258)">
<path d="M6.92601 7.28571C6.92601 6.51747 7.49071 5.89286 8.18527 5.89286H8.8149C9.50946 5.89286 10.0742 6.51747 10.0742 7.28571V7.36406C10.0742 7.8385 9.85575 8.2803 9.49568 8.53493L8.66536 9.12472C8.16953 9.47729 7.87045 10.0845 7.87045 10.7352V10.7679C7.87045 11.1531 8.15182 11.4643 8.50008 11.4643C8.84835 11.4643 9.12971 11.1531 9.12971 10.7679V10.7374C9.12971 10.5589 9.21235 10.3935 9.34615 10.2978L10.1765 9.70798C10.8966 9.19436 11.3334 8.31295 11.3334 7.36406V7.28571C11.3334 5.74704 10.206 4.5 8.8149 4.5H8.18527C6.79418 4.5 5.66675 5.74704 5.66675 7.28571C5.66675 7.67093 5.94811 7.98214 6.29638 7.98214C6.64464 7.98214 6.92601 7.67093 6.92601 7.28571ZM8.50008 14.25C8.70882 14.25 8.909 14.1583 9.0566 13.995C9.2042 13.8318 9.28712 13.6103 9.28712 13.3795C9.28712 13.1486 9.2042 12.9272 9.0566 12.7639C8.909 12.6006 8.70882 12.5089 8.50008 12.5089C8.29135 12.5089 8.09116 12.6006 7.94356 12.7639C7.79596 12.9272 7.71304 13.1486 7.71304 13.3795C7.71304 13.6103 7.79596 13.8318 7.94356 13.995C8.09116 14.1583 8.29135 14.25 8.50008 14.25Z" fill="black"/>
<path d="M16.5 9C16.5 13.7217 12.8917 17.5 8.5 17.5C4.10826 17.5 0.5 13.7217 0.5 9C0.5 4.27827 4.10826 0.5 8.5 0.5C12.8917 0.5 16.5 4.27827 16.5 9Z" stroke="black"/>
</g>
<defs>
<clipPath id="clip0_64_22258">
<rect width="17" height="18" fill="white"/>
</clipPath>
</defs>
</svg>
