<svg width="25" height="24" viewBox="0 0 25 24" fill="none" xmlns="http://www.w3.org/2000/svg">
<g id="speedometer-03">
<path id="Icon" d="M5.5 12C5.5 8.13401 8.63401 5 12.5 5M16.9999 7.5L12.4999 12M22.5 12C22.5 17.5228 18.0228 22 12.5 22C6.97715 22 2.5 17.5228 2.5 12C2.5 6.47715 6.97715 2 12.5 2C18.0228 2 22.5 6.47715 22.5 12ZM13.5 12C13.5 12.5523 13.0523 13 12.5 13C11.9477 13 11.5 12.5523 11.5 12C11.5 11.4477 11.9477 11 12.5 11C13.0523 11 13.5 11.4477 13.5 12Z" stroke="#7056D9" stroke-width="2" stroke-linecap="round" stroke-linejoin="round"/>
</g>
</svg>
