<svg width="24" height="24" viewBox="0 0 24 24" fill="none" xmlns="http://www.w3.org/2000/svg">
<g id="users-01">
<path id="Icon" d="M22 21V19C22 17.1362 20.7252 15.5701 19 15.126M15.5 3.29076C16.9659 3.88415 18 5.32131 18 7C18 8.67869 16.9659 10.1159 15.5 10.7092M17 21C17 19.1362 17 18.2044 16.6955 17.4693C16.2895 16.4892 15.5108 15.7105 14.5307 15.3045C13.7956 15 12.8638 15 11 15H7.99999C6.13622 15 5.20434 15 4.46925 15.3045C3.48914 15.7105 2.71044 16.4892 2.30447 17.4693C1.99998 18.2044 1.99998 19.1362 1.99998 21M13.5 7C13.5 9.20914 11.7091 11 9.49999 11C7.29085 11 5.49999 9.20914 5.49999 7C5.49999 4.79086 7.29085 3 9.49999 3C11.7091 3 13.5 4.79086 13.5 7Z" stroke="#D9A556" stroke-width="2.004" stroke-linecap="round" stroke-linejoin="round"/>
</g>
</svg>
