<svg width="24" height="24" viewBox="0 0 24 24" fill="none" xmlns="http://www.w3.org/2000/svg">
<circle cx="12" cy="12" r="11.5" stroke="#B2B4B8"/>
<g clip-path="url(#clip0_5_8761)">
<path d="M13.8036 8.28571C13.8036 7.74107 13.5872 7.21874 13.2021 6.83362C12.817 6.4485 12.2946 6.23214 11.75 6.23214C11.2054 6.23214 10.683 6.4485 10.2979 6.83362C9.91279 7.21874 9.69643 7.74107 9.69643 8.28571C9.69643 8.83036 9.91279 9.35269 10.2979 9.73781C10.683 10.1229 11.2054 10.3393 11.75 10.3393C12.2946 10.3393 12.817 10.1229 13.2021 9.73781C13.5872 9.35269 13.8036 8.83036 13.8036 8.28571ZM8.46429 8.28571C8.46429 7.41429 8.81046 6.57855 9.42665 5.96236C10.0428 5.34617 10.8786 5 11.75 5C12.6214 5 13.4572 5.34617 14.0734 5.96236C14.6895 6.57855 15.0357 7.41429 15.0357 8.28571C15.0357 9.15714 14.6895 9.99287 14.0734 10.6091C13.4572 11.2253 12.6214 11.5714 11.75 11.5714C10.8786 11.5714 10.0428 11.2253 9.42665 10.6091C8.81046 9.99287 8.46429 9.15714 8.46429 8.28571ZM7.26551 16.9107H16.2345C16.006 15.2858 14.6096 14.0357 12.9231 14.0357H10.5769C8.8904 14.0357 7.49397 15.2858 7.26551 16.9107ZM6 17.3805C6 14.852 8.04844 12.8036 10.5769 12.8036H12.9231C15.4516 12.8036 17.5 14.852 17.5 17.3805C17.5 17.8015 17.1586 18.1429 16.7376 18.1429H6.76239C6.34141 18.1429 6 17.8015 6 17.3805Z" fill="#B2B4B8"/>
</g>
<defs>
<clipPath id="clip0_5_8761">
<rect width="11.5" height="13.1429" fill="white" transform="translate(6 5)"/>
</clipPath>
</defs>
</svg>
