<svg width="20" height="20" viewBox="0 0 20 20" fill="none" xmlns="http://www.w3.org/2000/svg">
<g id="video-recorder">
<g id="Icon">
<path d="M18.3327 7.44313C18.3327 6.93829 18.3327 6.68586 18.2329 6.56898C18.1462 6.46756 18.0163 6.41373 17.8833 6.4242C17.7301 6.43626 17.5516 6.61475 17.1946 6.97173L14.166 10.0003L17.1946 13.0289C17.5516 13.3859 17.7301 13.5644 17.8833 13.5765C18.0163 13.5869 18.1462 13.5331 18.2329 13.4317C18.3327 13.3148 18.3327 13.0624 18.3327 12.5575V7.44313Z" stroke="#9EA2AC" stroke-width="1.67" stroke-linecap="round" stroke-linejoin="round"/>
<path d="M1.66602 8.16699C1.66602 6.76686 1.66602 6.0668 1.9385 5.53202C2.17818 5.06161 2.56063 4.67916 3.03104 4.43948C3.56582 4.16699 4.26588 4.16699 5.66602 4.16699H10.166C11.5661 4.16699 12.2662 4.16699 12.801 4.43948C13.2714 4.67916 13.6538 5.06161 13.8935 5.53202C14.166 6.0668 14.166 6.76686 14.166 8.16699V11.8337C14.166 13.2338 14.166 13.9339 13.8935 14.4686C13.6538 14.939 13.2714 15.3215 12.801 15.5612C12.2662 15.8337 11.5661 15.8337 10.166 15.8337H5.66602C4.26588 15.8337 3.56582 15.8337 3.03104 15.5612C2.56063 15.3215 2.17818 14.939 1.9385 14.4686C1.66602 13.9339 1.66602 13.2338 1.66602 11.8337V8.16699Z" stroke="#9EA2AC" stroke-width="1.67" stroke-linecap="round" stroke-linejoin="round"/>
</g>
</g>
</svg>
