<svg width="35" height="35" viewBox="0 0 35 35" fill="none" xmlns="http://www.w3.org/2000/svg">
<path d="M10.2083 16.0416V27.7083C10.2083 28.095 10.0547 28.466 9.7812 28.7395C9.50771 29.0129 9.13677 29.1666 8.75 29.1666H5.83333C5.44656 29.1666 5.07563 29.0129 4.80214 28.7395C4.52865 28.466 4.375 28.095 4.375 27.7083V17.4999C4.375 17.1131 4.52865 16.7422 4.80214 16.4687C5.07563 16.1952 5.44656 16.0416 5.83333 16.0416H10.2083ZM10.2083 16.0416C11.7554 16.0416 13.2392 15.427 14.3331 14.333C15.4271 13.2391 16.0417 11.7553 16.0417 10.2083V8.74992C16.0417 7.97637 16.349 7.2345 16.8959 6.68752C17.4429 6.14054 18.1848 5.83325 18.9583 5.83325C19.7319 5.83325 20.4737 6.14054 21.0207 6.68752C21.5677 7.2345 21.875 7.97637 21.875 8.74992V16.0416H26.25C27.0235 16.0416 27.7654 16.3489 28.3124 16.8959C28.8594 17.4428 29.1667 18.1847 29.1667 18.9583L27.7083 26.2499C27.4986 27.1446 27.1007 27.9128 26.5747 28.4388C26.0486 28.9649 25.4229 29.2203 24.7917 29.1666H14.5833C13.423 29.1666 12.3102 28.7057 11.4897 27.8852C10.6693 27.0647 10.2083 25.9519 10.2083 24.7916" stroke="#B60C3C" stroke-width="2" stroke-linecap="round" stroke-linejoin="round"/>
</svg>
