<svg width="25" height="24" viewBox="0 0 25 24" fill="none" xmlns="http://www.w3.org/2000/svg">
<path d="M16.75 3V7M8.75 3V7M4.75 11H20.75M8.75 14V18M12.75 14V18M16.75 14V18M4.75 7C4.75 6.46957 4.96071 5.96086 5.33579 5.58579C5.71086 5.21071 6.21957 5 6.75 5H18.75C19.2804 5 19.7891 5.21071 20.1642 5.58579C20.5393 5.96086 20.75 6.46957 20.75 7V19C20.75 19.5304 20.5393 20.0391 20.1642 20.4142C19.7891 20.7893 19.2804 21 18.75 21H6.75C6.21957 21 5.71086 20.7893 5.33579 20.4142C4.96071 20.0391 4.75 19.5304 4.75 19V7Z" stroke="black" stroke-width="2" stroke-linecap="round" stroke-linejoin="round"/>
</svg>
