<svg width="35" height="35" viewBox="0 0 35 35" fill="none" xmlns="http://www.w3.org/2000/svg">
<path d="M4.71094 22.753V28.5864M4.71094 25.6697H8.90995C9.49876 25.6697 9.79317 25.6697 10.0456 25.5729C10.2685 25.4873 10.467 25.3481 10.6236 25.1679C10.801 24.9639 10.9016 24.6871 11.1028 24.1338L13.4609 17.6489M23.6693 20.5655L26.2019 21.8318C26.8542 22.158 27.1803 22.3211 27.5017 22.3305C27.7847 22.339 28.0641 22.2648 28.3058 22.117C28.5801 21.9493 28.7824 21.646 29.1869 21.0392L29.4948 20.5773C30.0015 19.8173 30.2549 19.4372 30.2849 19.0594C30.3113 18.7276 30.2235 18.3968 30.036 18.1219C29.8223 17.8087 29.4138 17.6045 28.5969 17.196L28.0443 16.9197M5.96493 11.1242L8.69362 6.44642C9.08794 5.77044 9.28509 5.43246 9.56779 5.24496C9.81659 5.07994 10.1101 4.99525 10.4086 5.00237C10.7477 5.01043 11.0946 5.19143 11.7884 5.55343L23.3024 11.5607C24.3924 12.1294 24.9373 12.4137 25.1494 12.8165C25.3347 13.1683 25.3683 13.5806 25.2424 13.9578C25.0983 14.3896 24.6066 14.7584 23.6231 15.4961L18.9897 18.9711C18.5708 19.2853 18.3614 19.4423 18.1287 19.5171C17.9229 19.5833 17.705 19.603 17.4908 19.5747C17.2484 19.5427 17.0144 19.4255 16.5461 19.1915L6.93691 14.3869C6.16274 13.9998 5.77565 13.8062 5.56456 13.5084C5.37904 13.2466 5.28503 12.931 5.29706 12.6104C5.31074 12.2456 5.5288 11.8718 5.96493 11.1242Z" stroke="#B60C3C" stroke-width="2" stroke-linecap="round" stroke-linejoin="round"/>
</svg>
