<svg width="35" height="35" viewBox="0 0 35 35" fill="none" xmlns="http://www.w3.org/2000/svg">
<path d="M27.7922 7.75485L17.9484 3.37985C17.8074 3.31646 17.6546 3.28369 17.5 3.28369C17.3454 3.28369 17.1926 3.31646 17.0516 3.37985L7.20781 7.75485C7.01591 7.84111 6.85297 7.98089 6.73851 8.15742C6.62405 8.33396 6.56294 8.53977 6.5625 8.75016V18.1127C6.57003 19.4442 6.85726 20.7593 7.40556 21.9727C7.95386 23.1861 8.75099 24.2708 9.74531 25.1564L16.7781 31.4017C16.9777 31.5771 17.2343 31.6738 17.5 31.6738C17.7657 31.6738 18.0223 31.5771 18.2219 31.4017L25.2547 25.1564C26.249 24.2708 27.0461 23.1861 27.5944 21.9727C28.1427 20.7593 28.43 19.4442 28.4375 18.1127V8.75016C28.4371 8.53977 28.3759 8.33396 28.2615 8.15742C28.147 7.98089 27.9841 7.84111 27.7922 7.75485ZM26.25 18.1127C26.2521 19.1457 26.0348 20.1674 25.6124 21.1102C25.1901 22.053 24.5723 22.8953 23.8 23.5814L17.5 29.1595L11.2 23.5595C10.4277 22.8734 9.80993 22.0311 9.38757 21.0883C8.96521 20.1456 8.74789 19.1238 8.75 18.0908V9.4611L17.5 5.56735L26.25 9.4611V18.1127Z" fill="#B60C3C"/>
<path d="M14.2185 15.6299C14.0126 15.4239 13.7332 15.3082 13.442 15.3082C13.1507 15.3082 12.8714 15.4239 12.6654 15.6299C12.4595 15.8358 12.3438 16.1152 12.3438 16.4064C12.3438 16.6977 12.4595 16.977 12.6654 17.183L15.3998 19.9174C15.5015 20.0199 15.6224 20.1013 15.7557 20.1568C15.889 20.2123 16.032 20.2409 16.1763 20.2409C16.3207 20.2409 16.4637 20.2123 16.597 20.1568C16.7303 20.1013 16.8512 20.0199 16.9529 19.9174L22.4217 14.4486C22.6276 14.2311 22.7387 13.9406 22.7305 13.6411C22.7223 13.3417 22.5955 13.0577 22.3779 12.8518C22.1604 12.6458 21.8699 12.5347 21.5704 12.5429C21.2709 12.5511 20.987 12.6779 20.781 12.8955L16.0889 17.5986L14.2185 15.6299Z" fill="#B60C3C"/>
</svg>
