<svg width="35" height="35" viewBox="0 0 35 35" fill="none" xmlns="http://www.w3.org/2000/svg">
<path fill-rule="evenodd" clip-rule="evenodd" d="M12.1342 22.0414C12.2597 22.0108 12.3865 21.9967 12.5119 21.9981C12.7192 22.0006 12.9156 22.0911 13.0521 22.2471L17.4997 27.33L21.9472 22.2471C22.0837 22.0911 22.2802 22.0006 22.4875 21.9981C22.6128 21.9967 22.7396 22.0108 22.8651 22.0414C24.8787 22.5326 26.95 23.2882 28.5364 24.3299C30.1062 25.3606 31.3538 26.7797 31.3538 28.6195V32.0832C31.3538 32.4859 31.0274 32.8123 30.6247 32.8123H4.37467C3.97197 32.8123 3.64551 32.4859 3.64551 32.0832V28.6195C3.64551 26.7797 4.89313 25.3606 6.46292 24.3299C8.04931 23.2882 10.1207 22.5326 12.1342 22.0414ZM12.2287 23.5208C10.3891 23.9899 8.59735 24.673 7.26337 25.5489C5.85211 26.4756 5.10384 27.5108 5.10384 28.6195V31.354H29.8955V28.6195C29.8955 27.5108 29.1472 26.4756 27.736 25.5489C26.402 24.673 24.6102 23.9899 22.7705 23.5208L18.0484 28.9175C17.91 29.0757 17.71 29.1665 17.4997 29.1665C17.2894 29.1665 17.0894 29.0757 16.9509 28.9175L12.2287 23.5208Z" fill="#B60C3C"/>
<path d="M26.25 26.9793C26.25 26.9793 24.7917 26.2502 24.0625 25.521C23.3333 26.2502 21.875 26.9793 21.875 26.9793C21.875 26.9793 22.6387 29.896 24.0625 29.896C25.4863 29.896 26.25 26.9793 26.25 26.9793Z" fill="#B60C3C"/>
<path fill-rule="evenodd" clip-rule="evenodd" d="M14.9482 21.1458C14.9482 20.3404 15.6011 19.6875 16.4066 19.6875H18.5941C19.3995 19.6875 20.0524 20.3404 20.0524 21.1458V22.1535C20.0524 22.6397 19.8105 23.0893 19.4156 23.3585L20.0383 26.4716L18.6082 26.7576L17.8791 23.1117C17.8146 22.7893 17.9738 22.4636 18.268 22.3166L18.5941 22.1535V21.1458H16.4066V22.3021L16.9222 22.8177C17.0985 22.9941 17.1725 23.2482 17.1184 23.4915L16.3892 26.7727L14.9656 26.4564L15.6079 23.5659L15.3754 23.3333C15.1019 23.0598 14.9482 22.6889 14.9482 22.3021V21.1458Z" fill="#B60C3C"/>
<path fill-rule="evenodd" clip-rule="evenodd" d="M10.9375 12.3958V10.9375H12.3958V12.3958C12.3958 15.2148 14.681 17.5 17.5 17.5C20.319 17.5 22.6042 15.2148 22.6042 12.3958V10.9375H24.0625V12.3958C24.0625 16.0202 21.1244 18.9583 17.5 18.9583C13.8756 18.9583 10.9375 16.0202 10.9375 12.3958Z" fill="#B60C3C"/>
<path fill-rule="evenodd" clip-rule="evenodd" d="M17.6161 2.19695L17.5 2.91681L17.3839 2.19695L17.5 2.17822L17.6161 2.19695ZM24.7947 9.76917C24.8103 9.75167 24.8263 9.73329 24.8429 9.71404C25.0024 9.52884 25.2107 9.25963 25.4179 8.91196C25.8325 8.21663 26.25 7.19486 26.25 5.90405C26.25 5.39014 25.9477 5.00289 25.664 4.74754C25.3702 4.48295 24.9859 4.25802 24.582 4.06495C23.7685 3.67606 22.7141 3.34186 21.6984 3.07084C20.6746 2.79763 19.655 2.57948 18.8938 2.42992C18.5125 2.35501 18.1945 2.297 17.9713 2.25763C17.8596 2.23793 17.7716 2.22288 17.7111 2.2127L17.6415 2.2011L17.6231 2.19809L17.6161 2.19695C17.6159 2.19693 17.6161 2.19695 17.5 2.91681C17.3839 2.19695 17.3841 2.19693 17.3839 2.19695L17.3769 2.19809L17.3585 2.2011L17.2889 2.2127C17.2284 2.22288 17.1404 2.23793 17.0287 2.25763C16.8055 2.297 16.4875 2.35501 16.1062 2.42992C15.345 2.57948 14.3254 2.79763 13.3016 3.07084C12.2859 3.34186 11.2315 3.67606 10.418 4.06495C10.0141 4.25802 9.62981 4.48295 9.33596 4.74754C9.05231 5.00289 8.75 5.39015 8.75 5.90405C8.75 7.19476 9.16752 8.21648 9.58205 8.91181C9.78928 9.25948 9.99753 9.52876 10.1571 9.71404C10.1737 9.73329 10.1897 9.75159 10.2053 9.76909C10.2125 9.86513 10.2271 9.97457 10.2539 10.0941C10.3439 10.4967 10.5656 10.9913 11.0521 11.4619C12.01 12.3881 13.8866 13.1252 17.5 13.1252C21.1134 13.1252 22.99 12.3881 23.9479 11.4619C24.4344 10.9913 24.6561 10.4967 24.7461 10.0941C24.7729 9.97457 24.7875 9.8652 24.7947 9.76917ZM23.1157 10.2085H11.8843C11.9332 10.2741 11.9929 10.3429 12.0659 10.4135C12.6161 10.9455 14.0207 11.6668 17.5 11.6668C20.9793 11.6668 22.3839 10.9455 22.9341 10.4135C23.0071 10.3429 23.0668 10.2741 23.1157 10.2085ZM11.2516 8.75016H23.7484C23.8612 8.61789 24.0128 8.42094 24.1654 8.16515C24.4757 7.64452 24.7833 6.89212 24.7915 5.94306C24.779 5.92413 24.75 5.88694 24.6883 5.83136C24.5436 5.70105 24.3012 5.54707 23.9531 5.38069C23.2627 5.05071 22.312 4.74394 21.3224 4.47986C20.341 4.21794 19.3554 4.00683 18.6127 3.8609C18.242 3.78807 17.9334 3.73178 17.718 3.6938C17.6284 3.67799 17.555 3.66536 17.5 3.65604C17.445 3.66536 17.3716 3.67799 17.282 3.6938C17.0666 3.73178 16.758 3.78807 16.3873 3.8609C15.6446 4.00683 14.659 4.21794 13.6776 4.47986C12.688 4.74394 11.7372 5.05071 11.0469 5.38069C10.6988 5.54707 10.4564 5.70105 10.3117 5.83136C10.25 5.88694 10.221 5.92413 10.2085 5.94306C10.2167 6.892 10.5243 7.64438 10.8346 8.16507C10.9872 8.42094 11.1388 8.61781 11.2516 8.75016Z" fill="#B60C3C"/>
<path d="M18.9587 6.56234C18.9587 7.36777 18.3058 8.02067 17.5003 8.02067C16.6949 8.02067 16.042 7.36777 16.042 6.56234C16.042 5.75692 16.6949 5.104 17.5003 5.104C18.3058 5.104 18.9587 5.75692 18.9587 6.56234Z" fill="#B60C3C"/>
</svg>
