<svg width="50" height="50" viewBox="0 0 50 50" fill="none" xmlns="http://www.w3.org/2000/svg">
<path d="M12.5 43.75V39.5833C12.5 37.3732 13.378 35.2536 14.9408 33.6908C16.5036 32.128 18.6232 31.25 20.8333 31.25H21.875M16.6667 14.5833C16.6667 16.7935 17.5446 18.9131 19.1074 20.4759C20.6702 22.0387 22.7899 22.9167 25 22.9167C27.2101 22.9167 29.3298 22.0387 30.8926 20.4759C32.4554 18.9131 33.3333 16.7935 33.3333 14.5833C33.3333 12.3732 32.4554 10.2536 30.8926 8.69078C29.3298 7.12797 27.2101 6.25 25 6.25C22.7899 6.25 20.6702 7.12797 19.1074 8.69078C17.5446 10.2536 16.6667 12.3732 16.6667 14.5833ZM37.0838 43.3687L32.5588 45.7395C32.4245 45.8094 32.2735 45.8406 32.1225 45.8296C31.9715 45.8186 31.8266 45.7659 31.7038 45.6773C31.5811 45.5887 31.4854 45.4677 31.4274 45.3279C31.3694 45.188 31.3514 45.0348 31.3755 44.8854L32.2401 39.8624L28.5797 36.3062C28.4704 36.2006 28.393 36.0664 28.3564 35.9189C28.3198 35.7714 28.3254 35.6166 28.3725 35.4721C28.4196 35.3277 28.5065 35.1994 28.623 35.1019C28.7396 35.0044 28.8812 34.9416 29.0317 34.9208L34.0901 34.1874L36.3526 29.6187C36.4202 29.4826 36.5245 29.3681 36.6537 29.2881C36.7829 29.2081 36.9319 29.1656 37.0838 29.1656C37.2358 29.1656 37.3848 29.2081 37.5139 29.2881C37.6431 29.3681 37.7474 29.4826 37.8151 29.6187L40.0776 34.1874L45.1359 34.9208C45.286 34.9424 45.427 35.0055 45.5431 35.1031C45.6592 35.2007 45.7456 35.3288 45.7926 35.473C45.8397 35.6171 45.8454 35.7715 45.8093 35.9188C45.7731 36.066 45.6965 36.2002 45.588 36.3062L41.9276 39.8624L42.7901 44.8833C42.816 45.033 42.7993 45.187 42.7421 45.3277C42.6849 45.4685 42.5893 45.5904 42.4663 45.6796C42.3433 45.7687 42.1977 45.8216 42.0462 45.8322C41.8946 45.8428 41.7431 45.8107 41.6088 45.7395L37.0838 43.3687Z" stroke="#B60C3C" stroke-width="2" stroke-linecap="round" stroke-linejoin="round"/>
</svg>
