<svg width="50" height="50" viewBox="0 0 50 50" fill="none" xmlns="http://www.w3.org/2000/svg">
<path d="M29.1665 6.25V14.5833C29.1665 15.1359 29.386 15.6658 29.7767 16.0565C30.1674 16.4472 30.6973 16.6667 31.2498 16.6667H39.5832M29.1665 6.25H14.5832C13.4781 6.25 12.4183 6.68899 11.6369 7.47039C10.8555 8.25179 10.4165 9.3116 10.4165 10.4167V39.5833C10.4165 40.6884 10.8555 41.7482 11.6369 42.5296C12.4183 43.311 13.4781 43.75 14.5832 43.75H35.4165C36.5216 43.75 37.5814 43.311 38.3628 42.5296C39.1442 41.7482 39.5832 40.6884 39.5832 39.5833V16.6667M29.1665 6.25L39.5832 16.6667M20.8332 37.4998L31.2498 27.0831C31.8024 26.5306 32.1128 25.7812 32.1128 24.9998C32.1128 24.2184 31.8024 23.469 31.2498 22.9165C30.6973 22.3639 29.9479 22.0535 29.1665 22.0535C28.3851 22.0535 27.6357 22.3639 27.0832 22.9165L16.6665 33.3331V37.4998H20.8332Z" stroke="#B60C3C" stroke-width="2" stroke-linecap="round" stroke-linejoin="round"/>
</svg>
