<svg width="55" height="47" viewBox="0 0 55 47" fill="none" xmlns="http://www.w3.org/2000/svg">
<path d="M34.3645 44.3978H20.6185C8.17839 44.3978 2.86328 39.8702 2.86328 29.2733V17.564C2.86328 6.96705 8.17839 2.43945 20.6185 2.43945H34.3645C46.8046 2.43945 52.1197 6.96705 52.1197 17.564V29.2733C52.1197 39.8702 46.8046 44.3978 34.3645 44.3978ZM20.6185 5.36678C10.057 5.36678 6.29978 8.56732 6.29978 17.564V29.2733C6.29978 38.2699 10.057 41.4705 20.6185 41.4705H34.3645C44.926 41.4705 48.6832 38.2699 48.6832 29.2733V17.564C48.6832 8.56732 44.926 5.36678 34.3645 5.36678H20.6185Z" fill="#B8B8B8"/>
<path d="M20.6186 20.9791C17.1363 20.9791 14.3184 18.5787 14.3184 15.6124C14.3184 12.646 17.1363 10.2456 20.6186 10.2456C24.1009 10.2456 26.9188 12.646 26.9188 15.6124C26.9188 18.5787 24.1009 20.9791 20.6186 20.9791ZM20.6186 13.1729C19.0378 13.1729 17.7549 14.2658 17.7549 15.6124C17.7549 16.9589 19.0378 18.0518 20.6186 18.0518C22.1994 18.0518 23.4823 16.9589 23.4823 15.6124C23.4823 14.2658 22.1994 13.1729 20.6186 13.1729Z" fill="#B8B8B8"/>
<path d="M6.11744 38.4454C5.5676 38.4454 5.01776 38.2112 4.69702 37.8014C4.17009 37.1379 4.37628 36.2207 5.17813 35.7718L16.4727 29.3122C18.947 27.8875 22.3606 28.0632 24.6058 29.683L25.3618 30.2489C26.5073 31.0881 28.4547 31.0881 29.5772 30.2489L39.1078 23.2819C41.5362 21.506 45.3622 21.506 47.8136 23.2819L51.5479 26.0141C52.2581 26.541 52.3497 27.4582 51.7312 28.0827C51.1126 28.6877 50.0358 28.7657 49.3027 28.2388L45.5684 25.5067C44.4229 24.6675 42.4755 24.6675 41.3301 25.5067L31.7995 32.4737C29.3711 34.2496 25.5451 34.2496 23.0937 32.4737L22.3377 31.9077C21.2838 31.1466 19.5427 31.0686 18.3743 31.7516L7.07966 38.2112C6.78183 38.3674 6.43818 38.4454 6.11744 38.4454Z" fill="#B8B8B8"/>
</svg>
