<svg width="50" height="50" viewBox="0 0 50 50" fill="none" xmlns="http://www.w3.org/2000/svg">
<path d="M43.7165 26.1038C43.9453 22.2273 42.9648 18.3753 40.9105 15.08C38.8562 11.7846 35.8294 9.20833 32.2481 7.707C28.6668 6.20568 24.7076 5.85334 20.9175 6.69866C17.1274 7.54398 13.6932 9.54525 11.0892 12.4261C8.48526 15.3069 6.84001 18.9252 6.38067 22.7812C5.92134 26.6372 6.67058 30.5407 8.52493 33.9526C10.3793 37.3645 13.2473 40.1165 16.7328 41.8285C20.2183 43.5405 24.1494 44.1281 27.9831 43.51M25 14.5834V25L31.25 31.25M39.5834 33.3334L35.4167 39.5834H43.75L39.5834 45.8334" stroke="#B60C3C" stroke-width="2" stroke-linecap="round" stroke-linejoin="round"/>
</svg>
