<svg width="20" height="20" viewBox="0 0 20 20" fill="none" xmlns="http://www.w3.org/2000/svg">
<path d="M12.4998 5.83339L7.08309 11.2501C6.75157 11.5816 6.56532 12.0312 6.56532 12.5001C6.56532 12.9689 6.75157 13.4185 7.08309 13.7501C7.41461 14.0816 7.86425 14.2678 8.33309 14.2678C8.80193 14.2678 9.25157 14.0816 9.58309 13.7501L14.9998 8.33339C15.6628 7.67034 16.0353 6.77107 16.0353 5.83339C16.0353 4.8957 15.6628 3.99643 14.9998 3.33339C14.3367 2.67034 13.4374 2.29785 12.4998 2.29785C11.5621 2.29785 10.6628 2.67034 9.99975 3.33339L4.58309 8.75005C3.58852 9.74461 3.02979 11.0935 3.02979 12.5001C3.02979 13.9066 3.58852 15.2555 4.58309 16.2501C5.57765 17.2446 6.92656 17.8034 8.33309 17.8034C9.73961 17.8034 11.0885 17.2446 12.0831 16.2501L17.4998 10.8334" stroke="#ADB4BD" stroke-width="1.5" stroke-linecap="round" stroke-linejoin="round"/>
</svg>
