<svg width="29" height="31" viewBox="0 0 29 31" fill="none" xmlns="http://www.w3.org/2000/svg">
<path d="M27.5885 13.5231C27.3828 10.7693 26.3138 8.15052 24.5336 6.03948C22.7534 3.92844 20.3526 2.43268 17.6731 1.76507C14.9935 1.09746 12.1717 1.29202 9.60911 2.32105C7.04653 3.35009 4.87381 5.16117 3.40014 7.49655C1.92648 9.83193 1.22696 12.5726 1.40114 15.3286C1.57532 18.0846 2.61433 20.7154 4.37029 22.8467C6.12625 24.9779 8.5097 26.501 11.1814 27.1993C13.8532 27.8975 16.6771 27.7352 19.2513 26.7356M14.5 7.20835V14.5L17.4167 17.4167M24.7083 29.0834V29.0979M24.7083 24.7084C25.3621 24.7063 25.9963 24.4849 26.5093 24.0798C27.0224 23.6746 27.3847 23.109 27.5383 22.4735C27.6919 21.838 27.6278 21.1694 27.3564 20.5746C27.085 19.9799 26.6219 19.4934 26.0413 19.1929C25.4611 18.8958 24.7974 18.8036 24.1583 18.9315C23.5191 19.0594 22.942 19.3998 22.5208 19.8973" stroke="#B60C3C" stroke-width="2" stroke-linecap="round" stroke-linejoin="round"/>
</svg>
