<svg width="51" height="50" viewBox="0 0 51 50" fill="none" xmlns="http://www.w3.org/2000/svg">
<path d="M33.5835 6.25V14.5833M16.9168 6.25V14.5833M8.5835 22.9167H41.9168M16.9168 29.1667V37.5M25.2502 29.1667V37.5M33.5835 29.1667V37.5M8.5835 14.5833C8.5835 13.4783 9.02248 12.4185 9.80388 11.6371C10.5853 10.8557 11.6451 10.4167 12.7502 10.4167H37.7502C38.8552 10.4167 39.915 10.8557 40.6964 11.6371C41.4778 12.4185 41.9168 13.4783 41.9168 14.5833V39.5833C41.9168 40.6884 41.4778 41.7482 40.6964 42.5296C39.915 43.311 38.8552 43.75 37.7502 43.75H12.7502C11.6451 43.75 10.5853 43.311 9.80388 42.5296C9.02248 41.7482 8.5835 40.6884 8.5835 39.5833V14.5833Z" stroke="#B60C3C" stroke-width="2" stroke-linecap="round" stroke-linejoin="round"/>
</svg>
