<svg width="26" height="24" viewBox="0 0 26 24" fill="none" xmlns="http://www.w3.org/2000/svg">
<path d="M22.0736 21L15.9986 15M3.84863 10C3.84863 10.9193 4.03196 11.8295 4.38814 12.6788C4.74432 13.5281 5.26638 14.2997 5.92451 14.9497C6.58265 15.5998 7.36397 16.1154 8.22386 16.4672C9.08376 16.8189 10.0054 17 10.9361 17C11.8669 17 12.7885 16.8189 13.6484 16.4672C14.5083 16.1154 15.2896 15.5998 15.9477 14.9497C16.6059 14.2997 17.1279 13.5281 17.4841 12.6788C17.8403 11.8295 18.0236 10.9193 18.0236 10C18.0236 9.08075 17.8403 8.1705 17.4841 7.32122C17.1279 6.47194 16.6059 5.70026 15.9477 5.05025C15.2896 4.40024 14.5083 3.88463 13.6484 3.53284C12.7885 3.18106 11.8669 3 10.9361 3C10.0054 3 9.08376 3.18106 8.22386 3.53284C7.36397 3.88463 6.58265 4.40024 5.92451 5.05025C5.26638 5.70026 4.74432 6.47194 4.38814 7.32122C4.03196 8.1705 3.84863 9.08075 3.84863 10Z" stroke="black" stroke-width="2" stroke-linecap="round" stroke-linejoin="round"/>
</svg>
