<svg width="35" height="35" viewBox="0 0 35 35" fill="none" xmlns="http://www.w3.org/2000/svg">
<path d="M15.2976 3.25215L8.02057 5.97922C6.34349 6.6063 4.97266 8.58962 4.97266 10.3834V21.2187C4.97266 22.9396 6.11019 25.2 7.4956 26.2354L13.7664 30.9168C15.8226 32.4626 19.2059 32.4626 21.2622 30.9168L27.533 26.2354C28.9184 25.2 30.0559 22.9396 30.0559 21.2187V10.3834C30.0559 8.58962 28.6851 6.6063 27.008 5.97922L19.7309 3.25215C18.4914 2.80007 16.508 2.80007 15.2976 3.25215Z" stroke="#B60C3C" stroke-width="2" stroke-linecap="round" stroke-linejoin="round"/>
<path d="M17.4999 15.9248C17.4415 15.9248 17.3686 15.9248 17.3103 15.9248C15.9395 15.8811 14.8457 14.7436 14.8457 13.3582C14.8457 11.9436 15.9978 10.7915 17.4124 10.7915C18.827 10.7915 19.979 11.9436 19.979 13.3582C19.9645 14.7581 18.8707 15.8811 17.4999 15.9248Z" stroke="#B60C3C" stroke-width="2" stroke-linecap="round" stroke-linejoin="round"/>
<path d="M14.5978 20.0084C13.1979 20.9417 13.1979 22.473 14.5978 23.4063C16.1874 24.4709 18.7978 24.4709 20.3874 23.4063C21.7874 22.473 21.7874 20.9417 20.3874 20.0084C18.8124 18.9438 16.202 18.9438 14.5978 20.0084Z" stroke="#B60C3C" stroke-width="2" stroke-linecap="round" stroke-linejoin="round"/>
</svg>
