<svg width="25" height="24" viewBox="0 0 25 24" fill="none" xmlns="http://www.w3.org/2000/svg">
<path d="M4.5 5C4.5 5.26522 4.60536 5.51957 4.79289 5.70711C4.98043 5.89464 5.23478 6 5.5 6C5.76522 6 6.01957 5.89464 6.20711 5.70711C6.39464 5.51957 6.5 5.26522 6.5 5C6.5 4.73478 6.39464 4.48043 6.20711 4.29289C6.01957 4.10536 5.76522 4 5.5 4C5.23478 4 4.98043 4.10536 4.79289 4.29289C4.60536 4.48043 4.5 4.73478 4.5 5Z" stroke="black" stroke-width="2" stroke-linecap="round" stroke-linejoin="round"/>
<path d="M11.5 5C11.5 5.26522 11.6054 5.51957 11.7929 5.70711C11.9804 5.89464 12.2348 6 12.5 6C12.7652 6 13.0196 5.89464 13.2071 5.70711C13.3946 5.51957 13.5 5.26522 13.5 5C13.5 4.73478 13.3946 4.48043 13.2071 4.29289C13.0196 4.10536 12.7652 4 12.5 4C12.2348 4 11.9804 4.10536 11.7929 4.29289C11.6054 4.48043 11.5 4.73478 11.5 5Z" stroke="black" stroke-width="2" stroke-linecap="round" stroke-linejoin="round"/>
<path d="M18.5 5C18.5 5.26522 18.6054 5.51957 18.7929 5.70711C18.9804 5.89464 19.2348 6 19.5 6C19.7652 6 20.0196 5.89464 20.2071 5.70711C20.3946 5.51957 20.5 5.26522 20.5 5C20.5 4.73478 20.3946 4.48043 20.2071 4.29289C20.0196 4.10536 19.7652 4 19.5 4C19.2348 4 18.9804 4.10536 18.7929 4.29289C18.6054 4.48043 18.5 4.73478 18.5 5Z" stroke="black" stroke-width="2" stroke-linecap="round" stroke-linejoin="round"/>
<path d="M4.5 12C4.5 12.2652 4.60536 12.5196 4.79289 12.7071C4.98043 12.8946 5.23478 13 5.5 13C5.76522 13 6.01957 12.8946 6.20711 12.7071C6.39464 12.5196 6.5 12.2652 6.5 12C6.5 11.7348 6.39464 11.4804 6.20711 11.2929C6.01957 11.1054 5.76522 11 5.5 11C5.23478 11 4.98043 11.1054 4.79289 11.2929C4.60536 11.4804 4.5 11.7348 4.5 12Z" stroke="black" stroke-width="2" stroke-linecap="round" stroke-linejoin="round"/>
<path d="M11.5 12C11.5 12.2652 11.6054 12.5196 11.7929 12.7071C11.9804 12.8946 12.2348 13 12.5 13C12.7652 13 13.0196 12.8946 13.2071 12.7071C13.3946 12.5196 13.5 12.2652 13.5 12C13.5 11.7348 13.3946 11.4804 13.2071 11.2929C13.0196 11.1054 12.7652 11 12.5 11C12.2348 11 11.9804 11.1054 11.7929 11.2929C11.6054 11.4804 11.5 11.7348 11.5 12Z" stroke="black" stroke-width="2" stroke-linecap="round" stroke-linejoin="round"/>
<path d="M18.5 12C18.5 12.2652 18.6054 12.5196 18.7929 12.7071C18.9804 12.8946 19.2348 13 19.5 13C19.7652 13 20.0196 12.8946 20.2071 12.7071C20.3946 12.5196 20.5 12.2652 20.5 12C20.5 11.7348 20.3946 11.4804 20.2071 11.2929C20.0196 11.1054 19.7652 11 19.5 11C19.2348 11 18.9804 11.1054 18.7929 11.2929C18.6054 11.4804 18.5 11.7348 18.5 12Z" stroke="black" stroke-width="2" stroke-linecap="round" stroke-linejoin="round"/>
<path d="M4.5 19C4.5 19.2652 4.60536 19.5196 4.79289 19.7071C4.98043 19.8946 5.23478 20 5.5 20C5.76522 20 6.01957 19.8946 6.20711 19.7071C6.39464 19.5196 6.5 19.2652 6.5 19C6.5 18.7348 6.39464 18.4804 6.20711 18.2929C6.01957 18.1054 5.76522 18 5.5 18C5.23478 18 4.98043 18.1054 4.79289 18.2929C4.60536 18.4804 4.5 18.7348 4.5 19Z" stroke="black" stroke-width="2" stroke-linecap="round" stroke-linejoin="round"/>
<path d="M11.5 19C11.5 19.2652 11.6054 19.5196 11.7929 19.7071C11.9804 19.8946 12.2348 20 12.5 20C12.7652 20 13.0196 19.8946 13.2071 19.7071C13.3946 19.5196 13.5 19.2652 13.5 19C13.5 18.7348 13.3946 18.4804 13.2071 18.2929C13.0196 18.1054 12.7652 18 12.5 18C12.2348 18 11.9804 18.1054 11.7929 18.2929C11.6054 18.4804 11.5 18.7348 11.5 19Z" stroke="black" stroke-width="2" stroke-linecap="round" stroke-linejoin="round"/>
<path d="M18.5 19C18.5 19.2652 18.6054 19.5196 18.7929 19.7071C18.9804 19.8946 19.2348 20 19.5 20C19.7652 20 20.0196 19.8946 20.2071 19.7071C20.3946 19.5196 20.5 19.2652 20.5 19C20.5 18.7348 20.3946 18.4804 20.2071 18.2929C20.0196 18.1054 19.7652 18 19.5 18C19.2348 18 18.9804 18.1054 18.7929 18.2929C18.6054 18.4804 18.5 18.7348 18.5 19Z" stroke="black" stroke-width="2" stroke-linecap="round" stroke-linejoin="round"/>
</svg>
