<svg width="45" height="36" viewBox="0 0 45 36" fill="none" xmlns="http://www.w3.org/2000/svg">
<g clip-path="url(#clip0_597_336)">
<path d="M11.6014 10.1742L8.55684 10.8211L8.54277 20.8336C8.54277 22.6828 9.93496 23.8781 11.7842 23.8781C12.8107 23.8781 13.5631 23.6883 13.9779 23.4633V21.0867C13.5771 21.2484 11.6084 21.825 11.6084 19.9828V15.5391H13.9779V12.8813H11.6084L11.6014 10.1742ZM17.8662 13.8023L17.6764 12.8813H14.9764V23.6531H18.0912V16.4039C18.8295 15.4336 20.074 15.6234 20.4748 15.75V12.8813C20.0529 12.7336 18.5975 12.4594 17.8662 13.8023ZM24.3561 8.71875L21.2201 9.38672V11.932L24.3561 11.2641V8.71875ZM3.15684 16.0523C3.15684 15.5672 3.56465 15.3773 4.21856 15.3703C5.16777 15.3703 6.37715 15.6586 7.32637 16.1719V13.2328C6.29277 12.825 5.25918 12.6633 4.22559 12.6633C1.69434 12.6633 0.00683594 13.9852 0.00683594 16.193C0.00683594 19.6523 4.75293 19.0898 4.75293 20.5805C4.75293 21.157 4.25371 21.3469 3.55762 21.3469C2.52402 21.3469 1.18809 20.918 0.14043 20.3484V23.1609C1.30059 23.6602 2.47481 23.8711 3.55059 23.8711C6.14512 23.8711 7.93106 22.7602 7.93106 20.5102C7.93106 16.7906 3.15684 17.4586 3.15684 16.0523ZM44.9998 18.3938C44.9998 15.1945 43.4529 12.6703 40.4857 12.6703C37.5186 12.6703 35.7115 15.1945 35.7115 18.3727C35.7115 22.1344 37.842 23.8711 40.8795 23.8711C42.3701 23.8711 43.4881 23.5336 44.3389 23.0625V20.7141C43.4881 21.143 42.5107 21.4031 41.2732 21.4031C40.0568 21.4031 38.9881 20.9742 38.8475 19.5117H44.9576C44.9717 19.35 44.9998 18.6961 44.9998 18.3938ZM38.8193 17.2125C38.8193 15.8063 39.6842 15.2156 40.4647 15.2156C41.2311 15.2156 42.0467 15.8063 42.0467 17.2125H38.8193ZM30.8811 12.6703C29.6576 12.6703 28.8701 13.2469 28.4342 13.6477L28.2725 12.8742H25.5232V27.2742L28.6451 26.6133L28.6522 23.0836C29.1022 23.4141 29.7701 23.8711 30.86 23.8711C33.0959 23.8711 35.135 22.2398 35.135 18.2742C35.142 14.6461 33.0748 12.6703 30.8811 12.6703ZM30.1357 21.2836C29.4045 21.2836 28.9686 21.0164 28.6662 20.693L28.6451 16.0523C28.9686 15.6938 29.4186 15.4336 30.1357 15.4336C31.2748 15.4336 32.0623 16.7133 32.0623 18.3445C32.0693 20.025 31.2959 21.2836 30.1357 21.2836ZM21.2271 23.6531H24.3631V12.8813H21.2271V23.6531Z" fill="#6860FF"/>
</g>
<defs>
<clipPath id="clip0_597_336">
<rect width="45" height="36" fill="white"/>
</clipPath>
</defs>
</svg>
