<svg width="16" height="16" viewBox="0 0 16 16" fill="none" xmlns="http://www.w3.org/2000/svg">
<path d="M4.65308 2.0495C5.24312 1.94897 5.8482 1.98213 6.42372 2.14655C6.99924 2.31097 7.53052 2.60245 7.97841 2.9995L8.00308 3.0215L8.02574 3.0015C8.45321 2.62637 8.95576 2.3467 9.49986 2.18116C10.044 2.01562 10.6171 1.96801 11.1811 2.0415L11.3451 2.0655C12.0559 2.18824 12.7204 2.50094 13.2681 2.97048C13.8157 3.44003 14.2262 4.04893 14.456 4.73273C14.6859 5.41652 14.7265 6.14974 14.5737 6.85475C14.4208 7.55976 14.0801 8.21031 13.5877 8.7375L13.4677 8.86084L13.4357 8.88817L8.46908 13.8075C8.35446 13.9209 8.20261 13.989 8.04167 13.999C7.88072 14.0091 7.72158 13.9605 7.59374 13.8622L7.53108 13.8075L2.53574 8.8595C2.00656 8.34461 1.63021 7.69329 1.44838 6.97768C1.26656 6.26207 1.28634 5.5101 1.50556 4.80505C1.72477 4.09999 2.13485 3.46937 2.69038 2.98302C3.24592 2.49667 3.92523 2.17357 4.65308 2.0495Z" fill="white"/>
</svg>
